<svg xmlns="http://www.w3.org/2000/svg" xmlns:xlink="http://www.w3.org/1999/xlink" viewBox="0 0 601.87 593.94"><defs><style>.cls-1{fill:url(#linear-gradient);}.cls-2{fill:url(#linear-gradient-2);}.cls-3{fill:url(#linear-gradient-3);}.cls-4,.cls-58{fill:none;}.cls-5{fill:url(#linear-gradient-4);}.cls-6{clip-path:url(#clip-path);}.cls-7{fill:url(#linear-gradient-5);}.cls-8{clip-path:url(#clip-path-2);}.cls-9{fill:url(#linear-gradient-7);}.cls-10{clip-path:url(#clip-path-3);}.cls-11{fill:url(#linear-gradient-8);}.cls-12{clip-path:url(#clip-path-4);}.cls-13{fill:url(#linear-gradient-9);}.cls-14{fill:url(#linear-gradient-10);}.cls-15{fill:url(#linear-gradient-11);}.cls-16{fill:url(#linear-gradient-12);}.cls-17{fill:url(#linear-gradient-13);}.cls-18,.cls-19,.cls-20,.cls-21{opacity:0.8;}.cls-19,.cls-20,.cls-21{stroke:#fff;}.cls-19,.cls-20,.cls-21,.cls-58{stroke-miterlimit:10;}.cls-19{fill:url(#linear-gradient-14);}.cls-20{fill:url(#linear-gradient-15);}.cls-21{fill:url(#linear-gradient-16);}.cls-22{fill:#211915;}.cls-23,.cls-24,.cls-25,.cls-65{font-size:11.84px;}.cls-23,.cls-24,.cls-25,.cls-26,.cls-35,.cls-63{fill:#fff;}.cls-23,.cls-65{font-family:Couture-BoldItalic, Couture;font-style:italic;}.cls-23,.cls-24,.cls-25,.cls-26,.cls-55,.cls-63,.cls-65{font-weight:700;}.cls-24,.cls-25,.cls-26,.cls-63{font-family:Arial-BoldMT, Arial;}.cls-24{letter-spacing:0.15em;}.cls-25,.cls-26{letter-spacing:0.15em;}.cls-26{font-size:5.92px;}.cls-27{letter-spacing:0.15em;}.cls-28{fill:#87b137;}.cls-29{clip-path:url(#clip-path-6);}.cls-30{fill:url(#linear-gradient-17);}.cls-31{clip-path:url(#clip-path-7);}.cls-32{fill:url(#linear-gradient-18);}.cls-33{clip-path:url(#clip-path-8);}.cls-34{fill:url(#linear-gradient-19);}.cls-36{fill:#a05c17;}.cls-37{clip-path:url(#clip-path-9);}.cls-38{opacity:0.74;}.cls-39{clip-path:url(#clip-path-10);}.cls-40{opacity:0.4;}.cls-41{clip-path:url(#clip-path-11);}.cls-42{clip-path:url(#clip-path-12);}.cls-43{mask:url(#mask);}.cls-44{fill:url(#linear-gradient-20);}.cls-45{opacity:0.35;}.cls-46{clip-path:url(#clip-path-13);}.cls-47{clip-path:url(#clip-path-14);}.cls-48{mask:url(#mask-2);}.cls-49{fill:url(#linear-gradient-21);}.cls-50{opacity:0.25;}.cls-51{clip-path:url(#clip-path-15);}.cls-52{clip-path:url(#clip-path-16);}.cls-53{mask:url(#mask-3);}.cls-54{fill:url(#linear-gradient-22);}.cls-55{font-size:16.81px;font-family:Couture-Bold, Couture;}.cls-55,.cls-65{fill:#003958;}.cls-56{letter-spacing:0.23em;}.cls-57{letter-spacing:0.3em;}.cls-58{stroke:#003958;stroke-width:0.5px;}.cls-59{fill:url(#linear-gradient-23);}.cls-60{fill:url(#linear-gradient-24);}.cls-61{fill:url(#linear-gradient-25);}.cls-62{fill:url(#linear-gradient-26);}.cls-63{font-size:26.47px;}.cls-64{letter-spacing:-0.07em;}.cls-65{letter-spacing:0.15em;}.cls-66{letter-spacing:0.15em;}.cls-67{letter-spacing:0.15em;}.cls-68{letter-spacing:0.15em;}.cls-69{letter-spacing:0em;}</style><linearGradient id="linear-gradient" x1="30.68" y1="665.6" x2="31.76" y2="665.6" gradientTransform="matrix(46.57, -62.98, -33.81, -26.25, 21345.21, 19743.56)" gradientUnits="userSpaceOnUse"><stop offset="0" stop-color="#333"/><stop offset="0.06" stop-color="#4f4f4f"/><stop offset="0.27" stop-color="#adadad"/><stop offset="0.41" stop-color="#e8e8e8"/><stop offset="0.48" stop-color="#fff"/><stop offset="1" stop-color="#fff"/></linearGradient><linearGradient id="linear-gradient-2" x1="30.68" y1="665.59" x2="31.77" y2="665.59" gradientTransform="matrix(46.57, -62.98, -33.81, -26.25, 21351.03, 19745.49)" xlink:href="#linear-gradient"/><linearGradient id="linear-gradient-3" x1="30.69" y1="665.57" x2="31.78" y2="665.57" gradientTransform="matrix(46.57, -62.98, -33.81, -26.25, 21366.43, 19742.12)" xlink:href="#linear-gradient"/><linearGradient id="linear-gradient-4" x1="218.19" y1="287.96" x2="451.76" y2="287.96" gradientUnits="userSpaceOnUse"><stop offset="0" stop-color="#f4db79"/><stop offset="0.01" stop-color="#e9ce6f"/><stop offset="0.04" stop-color="#ceaf56"/><stop offset="0.07" stop-color="#b99743"/><stop offset="0.1" stop-color="#ab8635"/><stop offset="0.14" stop-color="#a27b2d"/><stop offset="0.18" stop-color="#9f782a"/><stop offset="0.31" stop-color="#c2a14f"/><stop offset="0.43" stop-color="#dec26c"/><stop offset="0.49" stop-color="#e8ce77"/><stop offset="0.54" stop-color="#e2c771"/><stop offset="0.62" stop-color="#d2b460"/><stop offset="0.71" stop-color="#b79544"/><stop offset="0.78" stop-color="#9f782a"/><stop offset="0.82" stop-color="#a37d2e"/><stop offset="0.87" stop-color="#b08c3a"/><stop offset="0.92" stop-color="#c5a54e"/><stop offset="0.97" stop-color="#e3c769"/><stop offset="1" stop-color="#f4db79"/></linearGradient><clipPath id="clip-path"><path id="SVGID" class="cls-4" d="M128.65,184.4H473.23a24.71,24.71,0,0,1,24.71,24.71V384.83a24.7,24.7,0,0,1-24.7,24.7H128.65a24.71,24.71,0,0,1-24.71-24.71V209.11a24.71,24.71,0,0,1,24.71-24.71Z" transform="translate(-40.25 47.28) rotate(-8.42)"/></clipPath><linearGradient id="linear-gradient-5" x1="31.09" y1="665.46" x2="32.18" y2="665.46" gradientTransform="matrix(174.47, 0, 0, -174.47, -5283.33, 116400.93)" gradientUnits="userSpaceOnUse"><stop offset="0" stop-color="#31404f"/><stop offset="0.07" stop-color="#2e3e4d"/><stop offset="1" stop-color="#001e2d"/></linearGradient><clipPath id="clip-path-2"><path id="SVGID-2" data-name="SVGID" class="cls-5" d="M218.19,195.43c67.68,13.59,179.87,56.74,230.22,193.5l3.35-.5C441.32,344.29,404.08,245.16,275.16,187Z"/></clipPath><linearGradient id="linear-gradient-7" x1="31.29" y1="665.23" x2="32.38" y2="665.23" gradientTransform="matrix(0, 196.72, 196.72, 0, -130529.03, -6002.29)" gradientUnits="userSpaceOnUse"><stop offset="0" stop-color="#f4db79"/><stop offset="0.02" stop-color="#dbba67"/><stop offset="0.05" stop-color="#c49b56"/><stop offset="0.08" stop-color="#b28349"/><stop offset="0.11" stop-color="#a5723f"/><stop offset="0.14" stop-color="#9d673a"/><stop offset="0.18" stop-color="#9b6438"/><stop offset="0.28" stop-color="#b47d48"/><stop offset="0.41" stop-color="#d59e5b"/><stop offset="0.49" stop-color="#e1aa63"/><stop offset="0.54" stop-color="#dfa45c"/><stop offset="0.62" stop-color="#d89549"/><stop offset="0.71" stop-color="#cd7c2a"/><stop offset="0.78" stop-color="#c4660e"/><stop offset="0.82" stop-color="#c56913"/><stop offset="0.87" stop-color="#c97222"/><stop offset="0.93" stop-color="#d0813b"/><stop offset="0.99" stop-color="#da965d"/><stop offset="1" stop-color="#db9962"/></linearGradient><clipPath id="clip-path-3"><path id="SVGID-3" data-name="SVGID" class="cls-4" d="M324.59,179.67C364.3,203.44,454.41,270,460.14,387.19l27.72-4.1A24.72,24.72,0,0,0,508.68,355L482.94,181.2a24.7,24.7,0,0,0-28.06-20.82Z"/></clipPath><linearGradient id="linear-gradient-8" x1="31.66" y1="665.22" x2="32.74" y2="665.22" gradientTransform="matrix(0, 203.68, 203.68, 0, -135073.39, -6276.33)" gradientUnits="userSpaceOnUse"><stop offset="0" stop-color="#003958"/><stop offset="0.03" stop-color="#285872"/><stop offset="0.08" stop-color="#5a7f93"/><stop offset="0.12" stop-color="#86a1b0"/><stop offset="0.17" stop-color="#abbec8"/><stop offset="0.22" stop-color="#cad6dc"/><stop offset="0.28" stop-color="#e1e8ec"/><stop offset="0.33" stop-color="#f2f5f6"/><stop offset="0.39" stop-color="#fcfdfd"/><stop offset="0.47" stop-color="#fff"/><stop offset="0.5" stop-color="#f9fbfb"/><stop offset="0.54" stop-color="#e9eef1"/><stop offset="0.58" stop-color="#cfdae0"/><stop offset="0.63" stop-color="#aabdc8"/><stop offset="0.67" stop-color="#7b99a9"/><stop offset="0.72" stop-color="#416c83"/><stop offset="0.77" stop-color="#003958"/><stop offset="0.84" stop-color="#436d84"/><stop offset="0.98" stop-color="#e8edf0"/><stop offset="1" stop-color="#fff"/></linearGradient><clipPath id="clip-path-4"><path id="SVGID-4" data-name="SVGID" class="cls-4" d="M373.37,172.45c39.36,36,101,110,90.52,214.19l24-3.55A24.72,24.72,0,0,0,508.68,355L482.94,181.2a24.7,24.7,0,0,0-28.06-20.82Z"/></clipPath><linearGradient id="linear-gradient-9" x1="32.02" y1="665.96" x2="33.11" y2="665.96" gradientTransform="matrix(-58.97, 0, 0, 58.97, 2411.99, -38997.99)" xlink:href="#linear-gradient-5"/><linearGradient id="linear-gradient-10" x1="25.68" y1="660.69" x2="26.77" y2="660.69" gradientTransform="matrix(9.12, -1.35, -1.35, -9.12, 866.48, 6429.71)" gradientUnits="userSpaceOnUse"><stop offset="0" stop-color="#fff"/><stop offset="0.09" stop-color="#f5f7f8"/><stop offset="0.23" stop-color="#dae2e7"/><stop offset="0.42" stop-color="#aec0ca"/><stop offset="0.64" stop-color="#7291a2"/><stop offset="0.89" stop-color="#255670"/><stop offset="1" stop-color="#003958"/></linearGradient><linearGradient id="linear-gradient-11" x1="27.04" y1="661.86" x2="28.13" y2="661.86" gradientTransform="matrix(11.95, -1.77, -1.77, -11.95, 1053.2, 8325.33)" xlink:href="#linear-gradient-10"/><linearGradient id="linear-gradient-12" x1="26.86" y1="661.69" x2="27.94" y2="661.69" gradientTransform="matrix(11.46, -1.7, -1.7, -11.46, 1021.15, 7998.4)" xlink:href="#linear-gradient-10"/><linearGradient id="linear-gradient-13" x1="26.01" y1="660.92" x2="27.1" y2="660.92" gradientTransform="matrix(9.66, -1.43, -1.43, -9.66, 903.84, 6793.22)" xlink:href="#linear-gradient-10"/><linearGradient id="linear-gradient-14" x1="136.28" y1="300.12" x2="202.42" y2="300.12" gradientTransform="translate(-22.34 50.26) rotate(-8.42)" xlink:href="#linear-gradient-10"/><linearGradient id="linear-gradient-15" x1="31.14" y1="665.2" x2="32.23" y2="665.2" gradientTransform="matrix(147.4, -21.83, -21.83, -147.4, 10134.44, 99112.49)" xlink:href="#linear-gradient-10"/><linearGradient id="linear-gradient-16" x1="216.93" y1="294.67" x2="315.52" y2="294.67" gradientTransform="translate(-22.34 50.26) rotate(-8.42)" xlink:href="#linear-gradient-10"/><clipPath id="clip-path-6"><path id="SVGID-6" data-name="SVGID" class="cls-4" d="M164.35,339.22,182.82,321c-.24-.15-.48-.3-.71-.47a12.47,12.47,0,0,1-2.42-2.33Z"/></clipPath><linearGradient id="linear-gradient-17" x1="28.68" y1="666.45" x2="29.77" y2="666.45" gradientTransform="matrix(23.67, 0, 0, -23.67, -519.26, 16106.4)" xlink:href="#linear-gradient-10"/><clipPath id="clip-path-7"><path id="SVGID-7" data-name="SVGID" class="cls-4" d="M149,346.43l28.24-31.25a12.56,12.56,0,0,1-1.3-5.7Z"/></clipPath><linearGradient id="linear-gradient-18" x1="29.87" y1="666.08" x2="30.96" y2="666.08" gradientTransform="matrix(41.57, 0, 0, -41.57, -1101.77, 28018.62)" xlink:href="#linear-gradient-10"/><clipPath id="clip-path-8"><path id="SVGID-8" data-name="SVGID" class="cls-4" d="M169.23,346l23.26-24.42a12.75,12.75,0,0,1-5.82.51Z"/></clipPath><linearGradient id="linear-gradient-19" x1="29.25" y1="666.21" x2="30.34" y2="666.21" gradientTransform="matrix(29.79, 0, 0, -29.79, -706.88, 20181.22)" xlink:href="#linear-gradient-10"/><clipPath id="clip-path-9"><path id="SVGID-9" data-name="SVGID" class="cls-4" d="M194,325.87l-6.33,10.06a4,4,0,0,0-.42,2.9,3.58,3.58,0,0,0,4.06,3L316,323.39a3.58,3.58,0,0,0,3-4.07l-1.74-11.71a3.57,3.57,0,0,0-4.06-3l-112.5,16.66-1.21.16c-1.6.24-3.32.83-5.5,4.46"/></clipPath><clipPath id="clip-path-10"><rect id="SVGID-10" data-name="SVGID" class="cls-4" x="263.58" y="274.81" width="84.05" height="65.36" transform="translate(-41.74 48.08) rotate(-8.42)"/></clipPath><clipPath id="clip-path-11"><rect id="SVGID-11" data-name="SVGID" class="cls-4" x="263.49" y="276.51" width="61" height="62.36" transform="translate(-41.9 46.38) rotate(-8.42)"/></clipPath><clipPath id="clip-path-12"><polyline id="SVGID-12" data-name="SVGID" class="cls-4" points="269.88 342.78 268.17 341.54 318.1 272.6 319.81 273.84"/></clipPath><mask id="mask" x="233.6" y="245.88" width="120.77" height="123.62" maskUnits="userSpaceOnUse"><polygon class="cls-1" points="233.6 316 285.45 245.88 354.37 299.38 302.52 369.5 233.6 316"/></mask><linearGradient id="linear-gradient-20" x1="30.68" y1="665.6" x2="31.76" y2="665.6" gradientTransform="matrix(46.57, -62.98, -33.81, -26.25, 21345.21, 19743.56)" gradientUnits="userSpaceOnUse"><stop offset="0" stop-color="#003958"/><stop offset="0.13" stop-color="#4f778c"/><stop offset="0.3" stop-color="#adbfc9"/><stop offset="0.42" stop-color="#e8edf0"/><stop offset="0.48" stop-color="#fff"/><stop offset="0.61" stop-color="#bccbd3"/><stop offset="0.88" stop-color="#36637b"/><stop offset="1" stop-color="#003958"/></linearGradient><clipPath id="clip-path-13"><rect id="SVGID-13" data-name="SVGID" class="cls-4" x="269.81" y="278.6" width="61" height="62.36" transform="translate(-42.14 47.33) rotate(-8.42)"/></clipPath><clipPath id="clip-path-14"><rect id="SVGID-14" data-name="SVGID" class="cls-4" x="257.75" y="308.73" width="85.12" height="2.11" transform="translate(-126.74 371.29) rotate(-54.09)"/></clipPath><mask id="mask-2" x="239.92" y="247.97" width="120.77" height="123.62" maskUnits="userSpaceOnUse"><polygon class="cls-2" points="239.93 318.09 291.78 247.97 360.7 301.47 308.85 371.59 239.93 318.09"/></mask><linearGradient id="linear-gradient-21" x1="30.68" y1="665.59" x2="31.77" y2="665.59" gradientTransform="matrix(46.57, -62.98, -33.81, -26.25, 21351.03, 19745.49)" xlink:href="#linear-gradient-20"/><clipPath id="clip-path-15"><rect id="SVGID-15" data-name="SVGID" class="cls-4" x="286.56" y="274.94" width="61" height="62.36" transform="translate(-41.42 49.74) rotate(-8.42)"/></clipPath><clipPath id="clip-path-16"><rect id="SVGID-16" data-name="SVGID" class="cls-4" x="274.5" y="305.07" width="85.12" height="2.11" transform="translate(-116.85 383.34) rotate(-54.09)"/></clipPath><mask id="mask-3" x="256.67" y="244.31" width="120.78" height="123.62" maskUnits="userSpaceOnUse"><polygon class="cls-3" points="256.67 314.43 308.52 244.31 377.44 297.81 325.59 367.93 256.67 314.43"/></mask><linearGradient id="linear-gradient-22" x1="30.69" y1="665.57" x2="31.78" y2="665.57" gradientTransform="matrix(46.57, -62.98, -33.81, -26.25, 21366.43, 19742.12)" xlink:href="#linear-gradient-20"/><linearGradient id="linear-gradient-23" x1="25.1" y1="659.98" x2="26.19" y2="659.98" gradientTransform="matrix(7.38, -1.09, -1.09, -7.38, 811.79, 5218.98)" xlink:href="#linear-gradient-5"/><linearGradient id="linear-gradient-24" x1="264.98" y1="310.17" x2="273.14" y2="310.17" gradientTransform="translate(-22.34 50.26) rotate(-8.42)" xlink:href="#linear-gradient-5"/><linearGradient id="linear-gradient-25" x1="275.25" y1="310.08" x2="281.94" y2="310.08" gradientTransform="translate(-22.34 50.26) rotate(-8.42)" xlink:href="#linear-gradient-5"/><linearGradient id="linear-gradient-26" x1="284.33" y1="310" x2="291.62" y2="310" gradientTransform="translate(-22.34 50.26) rotate(-8.42)" xlink:href="#linear-gradient-5"/></defs><title>Asset 4</title><g id="Layer_2" data-name="Layer 2"><g id="Layer_1-2" data-name="Layer 1"><g class="cls-6"><rect class="cls-7" x="74.1" y="99.01" width="453.67" height="395.92" transform="translate(-120.12 258.7) rotate(-39.43)"/></g><path id="SVGID-17" data-name="SVGID" class="cls-5" d="M218.19,195.43c67.68,13.59,179.87,56.74,230.22,193.5l3.35-.5C441.32,344.29,404.08,245.16,275.16,187Z"/><g class="cls-8"><rect class="cls-9" x="199.98" y="164.84" width="269.99" height="254.19" transform="matrix(0.11, -0.99, 0.99, 0.11, 6.51, 591.16)"/></g><g class="cls-10"><rect class="cls-11" x="340.24" y="167" width="156.41" height="225.14" transform="translate(-36.44 64.31) rotate(-8.42)"/></g><g class="cls-12"><rect class="cls-13" x="380.8" y="159.61" width="124.07" height="232.7" transform="translate(-50.22 105.2) rotate(-12.83)"/></g><g class="cls-6"><polygon class="cls-14" points="218.32 368.43 218.32 368.43 216.98 365.42 208.64 369.15 209.19 370.39 218.32 368.43 218.32 368.43 218.32 368.43 209.19 370.39 208.64 369.15 216.98 365.42 218.32 368.43 218.32 368.43"/><polygon class="cls-15" points="216.53 360.27 216.53 360.27 205.1 365.37 206.24 367.91 217.66 362.81 216.53 360.27 216.53 360.27 216.53 360.27 217.66 362.81 206.24 367.91 205.1 365.37 216.53 360.27 216.53 360.27"/><polygon class="cls-16" points="217.66 362.81 217.66 362.81 216.98 365.42 208.64 369.15 206.24 367.91 217.66 362.81 217.66 362.81 217.66 362.81 206.24 367.91 208.64 369.15 216.98 365.42 217.66 362.81 217.66 362.81"/><path class="cls-17" d="M216.78,374h0a16,16,0,0,1,3.1-.78l.56-.07L219,370l-9.12,1.95,2.1,4.72a19.23,19.23,0,0,1,4.79-2.63h0a19.23,19.23,0,0,0-4.79,2.63l-2.1-4.72L219,370l1.43,3.19-.56.07a16,16,0,0,0-3.1.78Z"/><g class="cls-18"><path class="cls-19" d="M215.85,294.29h0c-5.34-9.63-12.49-13.68-19.38-15,7.1,3.23,15,10.07,18.21,22.32a39.41,39.41,0,0,1,.85,4.16,37.31,37.31,0,0,1-4.4,24.1,46.9,46.9,0,0,0,2.4-22.52,38.65,38.65,0,0,0-3.94-12.22,33.47,33.47,0,0,0-3-4.72,26.33,26.33,0,0,0-24.84-10,26.94,26.94,0,0,0-6.92,2,26.48,26.48,0,0,0-15.43,27.88c.06.37.12.75.2,1.13a34,34,0,0,0,1.52,5.37c6.72,18,24.84,24.33,24.84,24.33a37.7,37.7,0,0,1-23.42-16.22A35,35,0,0,1,157,310.72a32,32,0,0,1,1.12-14.27,26,26,0,0,0-3.45,17.82,37,37,0,0,0,1.65,6.6c9.11,26.34,39,25.63,49.3,42l4.32-1.93,4.31-1.92a21.39,21.39,0,0,1-.63-2.94c-2.17-14.66,9.22-31.17,6.54-49.3a36.44,36.44,0,0,0-4.3-12.53h0a36.44,36.44,0,0,1,4.3,12.53c2.68,18.13-8.71,34.64-6.54,49.3a21.39,21.39,0,0,0,.63,2.94L209.93,361l-4.32,1.93c-10.32-16.41-40.19-15.7-49.3-42a37,37,0,0,1-1.65-6.6,26,26,0,0,1,3.45-17.82A32,32,0,0,0,157,310.72a35,35,0,0,0,5.57,14.19A37.7,37.7,0,0,0,186,341.13s-18.12-6.37-24.84-24.33a34,34,0,0,1-1.52-5.37c-.08-.38-.14-.76-.2-1.13a26.48,26.48,0,0,1,15.43-27.88,26.94,26.94,0,0,1,6.92-2,26.33,26.33,0,0,1,24.84,10,33.47,33.47,0,0,1,3,4.72,38.65,38.65,0,0,1,3.94,12.22,46.9,46.9,0,0,1-2.4,22.52,37.31,37.31,0,0,0,4.4-24.1,39.41,39.41,0,0,0-.85-4.16c-3.19-12.25-11.11-19.09-18.21-22.32,6.89,1.29,14,5.34,19.38,15Zm-14,2.17h0a1.21,1.21,0,0,1,.25-.08,1,1,0,0,1,1,.56,1,1,0,0,1,.08.25,1,1,0,0,1-.56,1,.72.72,0,0,1-.25.07,1,1,0,0,1-1-.55.78.78,0,0,1-.07-.25,1,1,0,0,1,.55-1h0a1,1,0,0,0-.55,1,.78.78,0,0,0,.07.25,1,1,0,0,0,1,.55.72.72,0,0,0,.25-.07,1,1,0,0,0,.56-1,1,1,0,0,0-.08-.25,1,1,0,0,0-1-.56,1.21,1.21,0,0,0-.25.08Zm4,9h0a1,1,0,0,1,.25-.08,1,1,0,0,1,1,.56,1,1,0,0,1,.07.25,1,1,0,0,1-.56,1,1,1,0,0,1-.25.07.93.93,0,0,1-1-.55.9.9,0,0,1-.08-.25,1,1,0,0,1,.56-1h0a1,1,0,0,0-.56,1,.9.9,0,0,0,.08.25.93.93,0,0,0,1,.55,1,1,0,0,0,.25-.07,1,1,0,0,0,.56-1,1,1,0,0,0-.07-.25,1,1,0,0,0-1-.56,1,1,0,0,0-.25.08Zm-9.49-11.94h0a.78.78,0,0,1,.25-.07.94.94,0,0,1,1,.55,1.21,1.21,0,0,1,.08.25,1,1,0,0,1-.56,1,.78.78,0,0,1-.25.07.94.94,0,0,1-1-.55.78.78,0,0,1-.07-.25,1,1,0,0,1,.55-1h0a1,1,0,0,0-.55,1,.78.78,0,0,0,.07.25.94.94,0,0,0,1,.55.78.78,0,0,0,.25-.07,1,1,0,0,0,.56-1,1.21,1.21,0,0,0-.08-.25.94.94,0,0,0-1-.55.78.78,0,0,0-.25.07Zm4,9h0a.72.72,0,0,1,.25-.07.94.94,0,0,1,1,.55,1.17,1.17,0,0,1,.07.25,1,1,0,0,1-.56,1,.72.72,0,0,1-.25.07,1,1,0,0,1-1-.55,1.17,1.17,0,0,1-.07-.25,1,1,0,0,1,.56-1h0a1,1,0,0,0-.56,1,1.17,1.17,0,0,0,.07.25,1,1,0,0,0,1,.55.72.72,0,0,0,.25-.07,1,1,0,0,0,.56-1,1.17,1.17,0,0,0-.07-.25.94.94,0,0,0-1-.55.72.72,0,0,0-.25.07Zm4,9h0a1.21,1.21,0,0,1,.25-.08,1,1,0,0,1,1,.56.72.72,0,0,1,.07.25,1,1,0,0,1-.55,1,.78.78,0,0,1-.25.07,1,1,0,0,1-1-.55.78.78,0,0,1-.07-.25.94.94,0,0,1,.55-1h0a.94.94,0,0,0-.55,1,.78.78,0,0,0,.07.25,1,1,0,0,0,1,.55.78.78,0,0,0,.25-.07,1,1,0,0,0,.55-1,.72.72,0,0,0-.07-.25,1,1,0,0,0-1-.56,1.21,1.21,0,0,0-.25.08ZM172.09,322.6h0a.78.78,0,0,1-.25.07.93.93,0,0,1-1-.55,1.21,1.21,0,0,1-.08-.25,1,1,0,0,1,.56-1,.72.72,0,0,1,.25-.07.94.94,0,0,1,1,.55.78.78,0,0,1,.07.25,1,1,0,0,1-.55,1h0a1,1,0,0,0,.55-1,.78.78,0,0,0-.07-.25.94.94,0,0,0-1-.55.72.72,0,0,0-.25.07,1,1,0,0,0-.56,1,1.21,1.21,0,0,0,.08.25.93.93,0,0,0,1,.55.78.78,0,0,0,.25-.07Zm-4-9h0a1,1,0,0,1-.25.08,1,1,0,0,1-1-.56,1,1,0,0,1-.07-.25,1,1,0,0,1,.56-1,.73.73,0,0,1,.24-.07,1,1,0,0,1,1,.55,1.17,1.17,0,0,1,.07.25,1,1,0,0,1-.56,1h0a1,1,0,0,0,.56-1,1.17,1.17,0,0,0-.07-.25,1,1,0,0,0-1-.55.73.73,0,0,0-.24.07,1,1,0,0,0-.56,1,1,1,0,0,0,.07.25,1,1,0,0,0,1,.56,1,1,0,0,0,.25-.08Zm9.49,11.94h0a.78.78,0,0,1-.25.07,1,1,0,0,1-1-.55,1.44,1.44,0,0,1-.08-.25,1,1,0,0,1,.56-1,1.21,1.21,0,0,1,.25-.08,1,1,0,0,1,1,.56.72.72,0,0,1,.07.25,1,1,0,0,1-.55,1h0a1,1,0,0,0,.55-1,.72.72,0,0,0-.07-.25,1,1,0,0,0-1-.56,1.21,1.21,0,0,0-.25.08,1,1,0,0,0-.56,1,1.44,1.44,0,0,0,.08.25,1,1,0,0,0,1,.55.78.78,0,0,0,.25-.07Zm-4-9h0a.72.72,0,0,1-.25.07,1,1,0,0,1-1-.55,1.17,1.17,0,0,1-.07-.25,1,1,0,0,1,.56-1,.72.72,0,0,1,.25-.07.94.94,0,0,1,1,.55,1.17,1.17,0,0,1,.07.25,1,1,0,0,1-.56,1h0a1,1,0,0,0,.56-1,1.17,1.17,0,0,0-.07-.25.94.94,0,0,0-1-.55.72.72,0,0,0-.25.07,1,1,0,0,0-.56,1,1.17,1.17,0,0,0,.07.25,1,1,0,0,0,1,.55.72.72,0,0,0,.25-.07Zm-4-9h0a.78.78,0,0,1-.25.07.94.94,0,0,1-1-.55.78.78,0,0,1-.07-.25,1,1,0,0,1,.55-1,.78.78,0,0,1,.25-.07.94.94,0,0,1,1,.55,1.21,1.21,0,0,1,.08.25,1,1,0,0,1-.56,1h0a1,1,0,0,0,.56-1,1.21,1.21,0,0,0-.08-.25.94.94,0,0,0-1-.55.78.78,0,0,0-.25.07,1,1,0,0,0-.55,1,.78.78,0,0,0,.07.25.94.94,0,0,0,1,.55.78.78,0,0,0,.25-.07Zm14.41-13.92h0a1.36,1.36,0,0,1,.25-.07,1,1,0,0,1,1,.56.73.73,0,0,1,.08.25,1,1,0,0,1-.56,1,1,1,0,0,1-.25.07,1,1,0,0,1-1-.56,1,1,0,0,1-.07-.25,1,1,0,0,1,.55-1h0a1,1,0,0,0-.55,1,1,1,0,0,0,.07.25,1,1,0,0,0,1,.56,1,1,0,0,0,.25-.07,1,1,0,0,0,.56-1,.73.73,0,0,0-.08-.25,1,1,0,0,0-1-.56,1.36,1.36,0,0,0-.25.07Zm4,9h0a1,1,0,0,1,.25-.07,1,1,0,0,1,1,.56,1,1,0,0,1,.07.25,1,1,0,0,1-.55,1,1.36,1.36,0,0,1-.25.07,1,1,0,0,1-1-.56,1,1,0,0,1-.08-.25,1,1,0,0,1,.56-1h0a1,1,0,0,0-.56,1,1,1,0,0,0,.08.25,1,1,0,0,0,1,.56,1.36,1.36,0,0,0,.25-.07,1,1,0,0,0,.55-1,1,1,0,0,0-.07-.25,1,1,0,0,0-1-.56,1,1,0,0,0-.25.07Zm4,9h0a1.17,1.17,0,0,1,.25-.07,1,1,0,0,1,1,.55.86.86,0,0,1,.07.25.93.93,0,0,1-.55,1,1,1,0,0,1-.25.08,1,1,0,0,1-1-.56.72.72,0,0,1-.07-.25,1,1,0,0,1,.55-1h0a1,1,0,0,0-.55,1,.72.72,0,0,0,.07.25,1,1,0,0,0,1,.56,1,1,0,0,0,.25-.08.93.93,0,0,0,.55-1,.86.86,0,0,0-.07-.25,1,1,0,0,0-1-.55,1.17,1.17,0,0,0-.25.07Zm4,9h0a1,1,0,0,1,.25-.07,1,1,0,0,1,1,.55,1.36,1.36,0,0,1,.07.25,1,1,0,0,1-.56,1,1,1,0,0,1-.25.08,1,1,0,0,1-1-.56,1,1,0,0,1-.07-.25,1,1,0,0,1,.56-1h0a1,1,0,0,0-.56,1,1,1,0,0,0,.07.25,1,1,0,0,0,1,.56,1,1,0,0,0,.25-.08,1,1,0,0,0,.56-1,1.36,1.36,0,0,0-.07-.25,1,1,0,0,0-1-.55,1,1,0,0,0-.25.07Zm-17.45-29.93h0l.19-.05a.93.93,0,0,1,1,.55,1.13,1.13,0,0,1,.08.24,1,1,0,0,1-.5,1l-.19,0a1,1,0,0,1-1-.55,1.09,1.09,0,0,1-.07-.24,1,1,0,0,1,.5-1h0a1,1,0,0,0-.5,1,1.09,1.09,0,0,0,.07.24,1,1,0,0,0,1,.55l.19,0a1,1,0,0,0,.5-1,1.13,1.13,0,0,0-.08-.24.93.93,0,0,0-1-.55l-.19.05Zm4,9h0l.19-.05a1,1,0,0,1,1,.55,1.09,1.09,0,0,1,.07.24,1,1,0,0,1-.5,1l-.19.05a.93.93,0,0,1-1-.55,1.13,1.13,0,0,1-.08-.24,1,1,0,0,1,.5-1h0a1,1,0,0,0-.5,1,1.13,1.13,0,0,0,.08.24.93.93,0,0,0,1,.55l.19-.05a1,1,0,0,0,.5-1,1.09,1.09,0,0,0-.07-.24,1,1,0,0,0-1-.55l-.19.05Zm4,9h0l.19-.05a.94.94,0,0,1,1,.55.73.73,0,0,1,.07.24,1,1,0,0,1-.5,1l-.19.05a.94.94,0,0,1-1-.55.73.73,0,0,1-.07-.24,1,1,0,0,1,.5-1h0a1,1,0,0,0-.5,1,.73.73,0,0,0,.07.24.94.94,0,0,0,1,.55l.19-.05a1,1,0,0,0,.5-1,.73.73,0,0,0-.07-.24.94.94,0,0,0-1-.55l-.19.05Zm4,9h0l.19-.05a1,1,0,0,1,1,.54,1.36,1.36,0,0,1,.07.25,1,1,0,0,1-.5,1l-.19.05a1,1,0,0,1-1-.55,1.09,1.09,0,0,1-.07-.24,1,1,0,0,1,.5-1h0a1,1,0,0,0-.5,1,1.09,1.09,0,0,0,.07.24,1,1,0,0,0,1,.55l.19-.05a1,1,0,0,0,.5-1,1.36,1.36,0,0,0-.07-.25,1,1,0,0,0-1-.54l-.19.05Zm4,9h0l.2,0a.94.94,0,0,1,1,.55.73.73,0,0,1,.07.24,1,1,0,0,1-.5,1,.58.58,0,0,1-.19,0,.91.91,0,0,1-1-.54,1,1,0,0,1-.08-.25,1,1,0,0,1,.5-1h0a1,1,0,0,0-.5,1,1,1,0,0,0,.08.25.91.91,0,0,0,1,.54.58.58,0,0,0,.19,0,1,1,0,0,0,.5-1,.67.67,0,0,0-.07-.24.94.94,0,0,0-1-.55l-.2,0Zm-17.45-30h0a1,1,0,0,1,.25-.07,1,1,0,0,1,1,.56,1,1,0,0,1,.07.25,1,1,0,0,1-.56,1,1,1,0,0,1-.25.07,1,1,0,0,1-1-.56,1,1,0,0,1-.07-.25,1,1,0,0,1,.56-1h0a1,1,0,0,0-.56,1,1,1,0,0,0,.07.25,1,1,0,0,0,1,.56,1,1,0,0,0,.25-.07,1,1,0,0,0,.56-1,1,1,0,0,0-.07-.25,1,1,0,0,0-1-.56,1,1,0,0,0-.25.07Zm4,9h0a1.17,1.17,0,0,1,.25-.07,1,1,0,0,1,1,.56.72.72,0,0,1,.07.25,1,1,0,0,1-.55,1,1.17,1.17,0,0,1-.25.07,1,1,0,0,1-1-.56.72.72,0,0,1-.07-.25.94.94,0,0,1,.55-1h0a.94.94,0,0,0-.55,1,.72.72,0,0,0,.07.25,1,1,0,0,0,1,.56,1.17,1.17,0,0,0,.25-.07,1,1,0,0,0,.55-1,.72.72,0,0,0-.07-.25,1,1,0,0,0-1-.56,1.17,1.17,0,0,0-.25.07Zm4,9h0a1.17,1.17,0,0,1,.25-.07,1,1,0,0,1,1,.55,1.44,1.44,0,0,1,.08.25,1,1,0,0,1-.56,1,.73.73,0,0,1-.25.08,1,1,0,0,1-1-.56,1,1,0,0,1-.07-.25,1,1,0,0,1,.55-1h0a1,1,0,0,0-.55,1,1,1,0,0,0,.07.25,1,1,0,0,0,1,.56.73.73,0,0,0,.25-.08,1,1,0,0,0,.56-1,1.44,1.44,0,0,0-.08-.25,1,1,0,0,0-1-.55,1.17,1.17,0,0,0-.25.07Zm4,9h0a1,1,0,0,1,.25-.07,1,1,0,0,1,1,.55,1.36,1.36,0,0,1,.07.25.94.94,0,0,1-.55,1,1.44,1.44,0,0,1-.25.08,1,1,0,0,1-1-.56,1,1,0,0,1-.08-.25,1,1,0,0,1,.56-1h0a1,1,0,0,0-.56,1,1,1,0,0,0,.08.25,1,1,0,0,0,1,.56,1.44,1.44,0,0,0,.25-.08,1,1,0,0,0,.55-1,1.36,1.36,0,0,0-.07-.25,1,1,0,0,0-1-.55,1,1,0,0,0-.25.07Zm-17.51-29.91h0a1.13,1.13,0,0,1,.24-.08,1,1,0,0,1,1,.56,1,1,0,0,1,.07.25,1,1,0,0,1-.56,1,.72.72,0,0,1-.25.07,1,1,0,0,1-1-.55,1.17,1.17,0,0,1-.07-.25,1,1,0,0,1,.56-1h0a1,1,0,0,0-.56,1,1.17,1.17,0,0,0,.07.25,1,1,0,0,0,1,.55.72.72,0,0,0,.25-.07,1,1,0,0,0,.56-1,1,1,0,0,0-.07-.25,1,1,0,0,0-1-.56,1.13,1.13,0,0,0-.24.08Zm4,9h0a.81.81,0,0,1,.25-.08,1,1,0,0,1,1,.56.72.72,0,0,1,.07.25,1,1,0,0,1-.55,1,1.17,1.17,0,0,1-.25.07,1,1,0,0,1-1-.55,1.29,1.29,0,0,1-.08-.26.94.94,0,0,1,.56-1h0a.94.94,0,0,0-.56,1,1.29,1.29,0,0,0,.08.26,1,1,0,0,0,1,.55,1.17,1.17,0,0,0,.25-.07,1,1,0,0,0,.55-1,.72.72,0,0,0-.07-.25,1,1,0,0,0-1-.56.73.73,0,0,0-.25.08Zm4,9h0a1.17,1.17,0,0,1,.25-.07,1,1,0,0,1,1,.56,1,1,0,0,1,.08.25,1,1,0,0,1-.56,1,1,1,0,0,1-.25.07,1,1,0,0,1-1-.55.86.86,0,0,1-.07-.25,1,1,0,0,1,.55-1h0a1,1,0,0,0-.55,1,.86.86,0,0,0,.07.25,1,1,0,0,0,1,.55,1,1,0,0,0,.25-.07,1,1,0,0,0,.56-1,1,1,0,0,0-.08-.25,1,1,0,0,0-1-.56,1.17,1.17,0,0,0-.25.07Zm4,9h0a1,1,0,0,1,.25-.07,1,1,0,0,1,1,.56,1,1,0,0,1,.07.25,1,1,0,0,1-.56,1,1,1,0,0,1-.25.07,1,1,0,0,1-1-.56,1,1,0,0,1-.07-.25,1,1,0,0,1,.56-1h0a1,1,0,0,0-.56,1,1,1,0,0,0,.07.25,1,1,0,0,0,1,.56,1,1,0,0,0,.25-.07,1,1,0,0,0,.56-1,1,1,0,0,0-.07-.25,1,1,0,0,0-1-.56,1,1,0,0,0-.25.07ZM183,328.5h0a1.17,1.17,0,0,1-.25.07,1,1,0,0,1-1-.56.72.72,0,0,1-.07-.25.94.94,0,0,1,.55-1,1.17,1.17,0,0,1,.25-.07,1,1,0,0,1,1,.56.72.72,0,0,1,.07.25,1,1,0,0,1-.55,1h0a1,1,0,0,0,.55-1,.72.72,0,0,0-.07-.25,1,1,0,0,0-1-.56,1.17,1.17,0,0,0-.25.07.94.94,0,0,0-.55,1,.72.72,0,0,0,.07.25,1,1,0,0,0,1,.56,1.17,1.17,0,0,0,.25-.07Zm-4-9h0a1,1,0,0,1-.25.07,1,1,0,0,1-1-.55,1.36,1.36,0,0,1-.07-.25,1,1,0,0,1,.56-1,1,1,0,0,1,.25-.08,1,1,0,0,1,1,.56,1,1,0,0,1,.07.25,1,1,0,0,1-.56,1h0a1,1,0,0,0,.56-1,1,1,0,0,0-.07-.25,1,1,0,0,0-1-.56,1,1,0,0,0-.25.08,1,1,0,0,0-.56,1,1.36,1.36,0,0,0,.07.25,1,1,0,0,0,1,.55,1,1,0,0,0,.25-.07Zm-4-9h0a.72.72,0,0,1-.25.07,1,1,0,0,1-1-.55.78.78,0,0,1-.07-.25,1,1,0,0,1,.55-1,1.21,1.21,0,0,1,.25-.08,1,1,0,0,1,1,.56,1,1,0,0,1,.08.25,1,1,0,0,1-.56,1h0a1,1,0,0,0,.56-1,1,1,0,0,0-.08-.25,1,1,0,0,0-1-.56,1.21,1.21,0,0,0-.25.08,1,1,0,0,0-.55,1,.78.78,0,0,0,.07.25,1,1,0,0,0,1,.55.72.72,0,0,0,.25-.07Zm-4-9h0a.78.78,0,0,1-.25.07.94.94,0,0,1-1-.55,1.21,1.21,0,0,1-.08-.25,1,1,0,0,1,.56-1,.72.72,0,0,1,.25-.07.94.94,0,0,1,1,.55.78.78,0,0,1,.07.25,1,1,0,0,1-.55,1h0a1,1,0,0,0,.55-1,.78.78,0,0,0-.07-.25.94.94,0,0,0-1-.55.72.72,0,0,0-.25.07,1,1,0,0,0-.56,1,1.21,1.21,0,0,0,.08.25.94.94,0,0,0,1,.55.78.78,0,0,0,.25-.07ZM187.24,331h0a.72.72,0,0,1-.07-.25.94.94,0,0,1,.55-1,1.17,1.17,0,0,1,.25-.07,1,1,0,0,1,1,.55.86.86,0,0,1,.07.25,1,1,0,0,1-.55,1,1.17,1.17,0,0,1-.25.07,1,1,0,0,1-1-.56h0a1,1,0,0,0,1,.56,1.17,1.17,0,0,0,.25-.07,1,1,0,0,0,.55-1,.86.86,0,0,0-.07-.25,1,1,0,0,0-1-.55,1.17,1.17,0,0,0-.25.07.94.94,0,0,0-.55,1,.72.72,0,0,0,.07.25Zm22.39,11.87h0a83.47,83.47,0,0,0-1.28,10.85,1.82,1.82,0,0,1-1,1.51,2.09,2.09,0,0,1-.43.11,1.77,1.77,0,0,1-1.37-.37,84.49,84.49,0,0,0-8.94-6.29,1.73,1.73,0,0,1-.85-1.27,1.79,1.79,0,0,1,1.05-1.92l5.16-2.31,5.16-2.3a1.74,1.74,0,0,1,.48-.14,1.82,1.82,0,0,1,2.05,1.51,1.86,1.86,0,0,1,0,.62h0a1.86,1.86,0,0,0,0-.62,1.82,1.82,0,0,0-2.05-1.51,1.74,1.74,0,0,0-.48.14l-5.16,2.3-5.16,2.31a1.79,1.79,0,0,0-1.05,1.92,1.73,1.73,0,0,0,.85,1.27,84.49,84.49,0,0,1,8.94,6.29,1.77,1.77,0,0,0,1.37.37,2.09,2.09,0,0,0,.43-.11,1.82,1.82,0,0,0,1-1.51,83.47,83.47,0,0,1,1.28-10.85Zm-7.4-17.52h0a.72.72,0,0,1-.25.07.94.94,0,0,1-1-.55,1.17,1.17,0,0,1-.07-.25,1,1,0,0,1,.56-1,.72.72,0,0,1,.25-.07,1,1,0,0,1,1,.55,1.17,1.17,0,0,1,.07.25,1,1,0,0,1-.56,1h0a1,1,0,0,0,.56-1,1.17,1.17,0,0,0-.07-.25,1,1,0,0,0-1-.55.72.72,0,0,0-.25.07,1,1,0,0,0-.56,1,1.17,1.17,0,0,0,.07.25.94.94,0,0,0,1,.55.72.72,0,0,0,.25-.07Zm-4-9h0a1,1,0,0,1-.25.08,1,1,0,0,1-1-.56.72.72,0,0,1-.07-.25,1,1,0,0,1,.55-1,.78.78,0,0,1,.25-.07,1,1,0,0,1,1,.55,1.21,1.21,0,0,1,.08.25,1,1,0,0,1-.56,1h0a1,1,0,0,0,.56-1,1.21,1.21,0,0,0-.08-.25,1,1,0,0,0-1-.55.78.78,0,0,0-.25.07,1,1,0,0,0-.55,1,.72.72,0,0,0,.07.25,1,1,0,0,0,1,.56,1,1,0,0,0,.25-.08Zm-4-9h0a1.21,1.21,0,0,1-.25.08,1,1,0,0,1-1-.56,1,1,0,0,1-.08-.25,1,1,0,0,1,.56-1,.72.72,0,0,1,.25-.07,1,1,0,0,1,1,.55.86.86,0,0,1,.07.25.94.94,0,0,1-.55,1h0a.94.94,0,0,0,.55-1,.86.86,0,0,0-.07-.25,1,1,0,0,0-1-.55.72.72,0,0,0-.25.07,1,1,0,0,0-.56,1,1,1,0,0,0,.08.25,1,1,0,0,0,1,.56,1.21,1.21,0,0,0,.25-.08Zm-4-9h0a1,1,0,0,1-.25.08,1,1,0,0,1-1-.56,1,1,0,0,1-.07-.25,1,1,0,0,1,.56-1,1.09,1.09,0,0,1,.24-.07.94.94,0,0,1,1,.55.87.87,0,0,1,.08.26.94.94,0,0,1-.56,1h0a.94.94,0,0,0,.56-1,.87.87,0,0,0-.08-.26.94.94,0,0,0-1-.55,1.09,1.09,0,0,0-.24.07,1,1,0,0,0-.56,1,1,1,0,0,0,.07.25,1,1,0,0,0,1,.56,1,1,0,0,0,.25-.08Zm-4-9h0a1.17,1.17,0,0,1-.25.07,1,1,0,0,1-1-.56.72.72,0,0,1-.07-.25,1,1,0,0,1,.55-1,1.17,1.17,0,0,1,.25-.07,1,1,0,0,1,1,.56.72.72,0,0,1,.07.25.94.94,0,0,1-.55,1h0a.94.94,0,0,0,.55-1,.72.72,0,0,0-.07-.25,1,1,0,0,0-1-.56,1.17,1.17,0,0,0-.25.07,1,1,0,0,0-.55,1,.72.72,0,0,0,.07.25,1,1,0,0,0,1,.56,1.17,1.17,0,0,0,.25-.07Zm17.51,29.91h0a.72.72,0,0,1-.25.07,1,1,0,0,1-1-.55.78.78,0,0,1-.07-.25,1,1,0,0,1,.55-1,.86.86,0,0,1,.25-.07.93.93,0,0,1,1,.55,1.21,1.21,0,0,1,.08.25,1,1,0,0,1-.56,1h0a1,1,0,0,0,.56-1,1.21,1.21,0,0,0-.08-.25.93.93,0,0,0-1-.55.86.86,0,0,0-.25.07,1,1,0,0,0-.55,1,.78.78,0,0,0,.07.25,1,1,0,0,0,1,.55.72.72,0,0,0,.25-.07Zm-4-9h0a.78.78,0,0,1-.25.07,1,1,0,0,1-1-.55,1.21,1.21,0,0,1-.08-.25,1,1,0,0,1,.56-1,.78.78,0,0,1,.25-.07.94.94,0,0,1,1,.55.78.78,0,0,1,.07.25,1,1,0,0,1-.55,1h0a1,1,0,0,0,.55-1,.78.78,0,0,0-.07-.25.94.94,0,0,0-1-.55.78.78,0,0,0-.25.07,1,1,0,0,0-.56,1,1.21,1.21,0,0,0,.08.25.94.94,0,0,0,1,.55.78.78,0,0,0,.25-.07Zm-4-9h0a1,1,0,0,1-.25.08,1,1,0,0,1-1-.56,1,1,0,0,1-.07-.25,1,1,0,0,1,.56-1,.72.72,0,0,1,.25-.07,1,1,0,0,1,1,.55,1.17,1.17,0,0,1,.07.25,1,1,0,0,1-.56,1h0a1,1,0,0,0,.56-1,1.17,1.17,0,0,0-.07-.25,1,1,0,0,0-1-.55.72.72,0,0,0-.25.07,1,1,0,0,0-.56,1,1,1,0,0,0,.07.25,1,1,0,0,0,1,.56,1,1,0,0,0,.25-.08Zm-4-9h0a1.21,1.21,0,0,1-.25.08,1,1,0,0,1-1-.56.72.72,0,0,1-.07-.25,1,1,0,0,1,.55-1,1.17,1.17,0,0,1,.25-.07,1,1,0,0,1,1,.55.86.86,0,0,1,.07.25.93.93,0,0,1-.55,1h0a.93.93,0,0,0,.55-1,.86.86,0,0,0-.07-.25,1,1,0,0,0-1-.55,1.17,1.17,0,0,0-.25.07,1,1,0,0,0-.55,1,.72.72,0,0,0,.07.25,1,1,0,0,0,1,.56,1.21,1.21,0,0,0,.25-.08Z"/><path class="cls-20" d="M369.66,401.15h0l-51.14-9.49,42.32-1-44.41-9.56L356,379.47l-36.84-6.69,31.56-3.09-8.09-2.95a48.08,48.08,0,0,1-5.18,1.06,66.83,66.83,0,0,1-7.77.63,82.8,82.8,0,0,1-9.08-.31c-3-.26-5.92-.59-8.91-1.11a91.7,91.7,0,0,1-17.39-4.72c-1.21-.46-2.4-.94-3.59-1.44l-12.26,13c-.07.1-.11.2-.19.3-2.18,2.71-26.71,19.24-28.37,20.77a1.73,1.73,0,0,1-.91.38c-2.55.38-8.27-2-11.11-1.77-4.47.38-8-1-8.14-1.87,0-.31.3-.57,1.13-.69l.51-.05a29.83,29.83,0,0,0,4.3-.31,11.87,11.87,0,0,0,5.09-1.73c2.85-2.16,13.62-13.87,16.56-19.46s6.14-24.23,6.14-24.23l.21.09-.3-.22a151.51,151.51,0,0,1-25-23.26c-1,5.3-2.06,8.84-3.22,10.08a1.16,1.16,0,0,0-.38,1c.27,1.82,6,3.11,6,3.11l11,3.27-10.44-4.42c-.06,2.18-.7,9.32-.1,13.39,0,0-8.05,14.68-12.73,27.28a20.89,20.89,0,0,0-8.5-.57,16.84,16.84,0,0,0-3.27.82c-5.83,2.16-10.23,7.28-9.91,9.41a3.11,3.11,0,0,0,2.52,2.5s.41,2.79,3,2.47a.82.82,0,0,0,0,.1c.07.49.5,2.7,2.36,2.54a3,3,0,0,0,0,.36,1.81,1.81,0,0,0,2.13,1.77l.33-.07,3.45,2.33a3.08,3.08,0,0,0,0,1,2.07,2.07,0,0,0,2.15,1.83,4,4,0,0,0,0,1,2.4,2.4,0,0,0,2,2.2,4.19,4.19,0,0,0,0,.5,3.85,3.85,0,0,0,2.77,3.31,3.42,3.42,0,0,0,0,.89c.16,1.06.84,2.82,3.57,3.74,0,0,3.43,1.8,9.46.9a28.12,28.12,0,0,0,6.38-1.76,34.86,34.86,0,0,0,4.6-.42,51,51,0,0,0,21.08-8.18c12.2-8.33,14.9-10.67,16.48-10.91h.16L306.74,377l-26.3,15.55c0,.26,0,.53.07.82.85,5.74,9.19,16.3,9.19,16.3l84.51.72-55.8-10.52,51.25,1.27h0l-51.25-1.27,55.8,10.52-84.51-.72s-8.34-10.56-9.19-16.3c0-.29-.06-.56-.07-.82L306.74,377,289.48,391.2h-.16c-1.58.24-4.28,2.58-16.48,10.91a51,51,0,0,1-21.08,8.18,34.86,34.86,0,0,1-4.6.42,28.12,28.12,0,0,1-6.38,1.76c-6,.9-9.46-.9-9.46-.9-2.73-.92-3.41-2.68-3.57-3.74a3.42,3.42,0,0,1,0-.89,3.85,3.85,0,0,1-2.77-3.31,4.33,4.33,0,0,1,0-.5,2.4,2.4,0,0,1-2-2.2,4,4,0,0,1,0-1,2.07,2.07,0,0,1-2.15-1.83,3.08,3.08,0,0,1,0-1l-3.45-2.33-.33.07a1.81,1.81,0,0,1-2.13-1.77,3,3,0,0,1,0-.36c-1.86.16-2.29-2.05-2.36-2.54a.82.82,0,0,1,0-.1c-2.6.32-3-2.47-3-2.47a3.11,3.11,0,0,1-2.52-2.5c-.32-2.13,4.08-7.25,9.91-9.41a16.84,16.84,0,0,1,3.27-.82,20.89,20.89,0,0,1,8.5.57c4.68-12.6,12.73-27.28,12.73-27.28-.6-4.07,0-11.21.1-13.39l10.44,4.42-11-3.27s-5.73-1.29-6-3.11a1.16,1.16,0,0,1,.38-1c1.16-1.24,2.2-4.78,3.22-10.08a151.51,151.51,0,0,0,25,23.26l.3.22-.21-.09s-3.2,18.63-6.14,24.23-13.71,17.3-16.56,19.46a11.87,11.87,0,0,1-5.09,1.73,29.83,29.83,0,0,1-4.3.31l-.51.05c-.83.12-1.17.38-1.13.69.13.9,3.67,2.25,8.14,1.87,2.84-.24,8.56,2.15,11.11,1.77a1.73,1.73,0,0,0,.91-.38c1.66-1.53,26.19-18.06,28.37-20.77.08-.1.12-.2.19-.3l12.26-13c1.19.5,2.38,1,3.59,1.44A91.7,91.7,0,0,0,311.69,367c3,.52,5.9.85,8.91,1.11a82.8,82.8,0,0,0,9.08.31,66.83,66.83,0,0,0,7.77-.63,48.08,48.08,0,0,0,5.18-1.06l8.09,2.95-31.56,3.09L356,379.47l-39.57,1.65,44.41,9.56-42.32,1,51.14,9.49Z"/><path class="cls-21" d="M338.73,343.25c-.49-1.8-.92-3.83-1.29-5.95a69.46,69.46,0,0,0-.7-11.4,61.08,61.08,0,0,0-1.32-6.45,52.12,52.12,0,0,0-2.05-6.19,24,24,0,0,0-2.26-4.18c-2.6-1.63-11.81-7.25-15.46-7.81a5,5,0,0,0-1.53,0c-4.62.68-12,6-12,6s6.37-7,11.86-8.34l.35-.07c3.1-.46,8.29,2.31,12.39,4.92-11.36-11.51-31-19.32-31-19.32s-7.37,6.06-14.3,8.8c5.85-4.24,12.48-10,13-11.21s-.56-6.91-.21-7.56a2.33,2.33,0,0,0,.19-1.42,1.05,1.05,0,0,1,0-.13c0-.2-.54-.62-.61-.76h0c0-.17.63-1,.72-1.36a.54.54,0,0,0,0-.18,5.76,5.76,0,0,0-.63-1.41s3.08-1.65,3.1-2.81c-2.54-2.78-4-9.11-4-9.11s1.92-2,1.32-6.08h0c.4-.05,5.38-.89,6.36-5.8a9.66,9.66,0,0,0,.12-3.31,8.48,8.48,0,0,0-3.86-5.86,7.28,7.28,0,0,1,.15.74c.17,1.16.24,3.34-1.52,4l-.17,0c-2.5.37-7.7-11.89-24-10.45-.9.08-1.78.18-2.63.31-13.34,2-18.85,9.29-18.1,14.38a6,6,0,0,0,.4,1.41s-5.25,4-4.47,9.3a8,8,0,0,0,1,2.82c3.32,5.84,7.9,13.29,8.45,17a3.56,3.56,0,0,1,0,1.26,2.15,2.15,0,0,0-.05.77c.06.46.37.58.77.52a8.34,8.34,0,0,0,2.72-1.51,9.53,9.53,0,0,1,4.29,6.89,14.92,14.92,0,0,1-.35,5.66l-2.65,8.43.34-8.26c-.44,0-.93.11-1.46.19-6,.88-17.16,4-18.6,14.73l-.49,3.6v0c.08.52-2.89,16.19-2.81,16.72h0c.94,1,7,6,10.43,8.86l.1,1.65,3.32,5,35.2,19.52,20,9.47,36.67-1.36-3.93-19.66a8.58,8.58,0,0,0,1-.32h0a8.58,8.58,0,0,1-1,.32l3.93,19.66-36.67,1.36-20-9.47-35.2-19.52-3.32-5-.1-1.65c-3.4-2.87-9.49-7.82-10.43-8.86h0c-.08-.53,2.89-16.2,2.81-16.72v0c.16-1.17.32-2.37.49-3.6,1.44-10.76,12.62-13.85,18.6-14.73.53-.08,1-.14,1.46-.19l-.34,8.26,2.65-8.43a14.92,14.92,0,0,0,.35-5.66,9.53,9.53,0,0,0-4.29-6.89,8.34,8.34,0,0,1-2.72,1.51c-.4.06-.71-.06-.77-.52a2.15,2.15,0,0,1,.05-.77,3.56,3.56,0,0,0,0-1.26c-.55-3.75-5.13-11.2-8.45-17a8,8,0,0,1-1-2.82c-.78-5.27,4.47-9.3,4.47-9.3a6,6,0,0,1-.4-1.41c-.75-5.09,4.76-12.41,18.1-14.38.85-.13,1.73-.23,2.63-.31,16.3-1.44,21.5,10.82,24,10.45l.17,0c1.76-.69,1.69-2.87,1.52-4a7.28,7.28,0,0,0-.15-.74,8.48,8.48,0,0,1,3.86,5.86,9.66,9.66,0,0,1-.12,3.31c-1,4.91-6,5.75-6.36,5.8h0c.6,4.07-1.32,6.08-1.32,6.08s1.49,6.33,4,9.11c0,1.16-3.1,2.81-3.1,2.81a5.76,5.76,0,0,1,.63,1.41.54.54,0,0,1,0,.18c-.09.4-.75,1.19-.72,1.36h0c.07.14.58.56.61.76a1.05,1.05,0,0,0,0,.13,2.33,2.33,0,0,1-.19,1.42c-.35.65.71,6.38.21,7.56s-7.14,7-13,11.21c6.93-2.74,14.3-8.8,14.3-8.8s19.63,7.81,31,19.32c-4.1-2.61-9.29-5.38-12.39-4.92L314,299c-5.49,1.34-11.86,8.34-11.86,8.34s7.34-5.33,12-6a5,5,0,0,1,1.53,0c3.65.56,12.86,6.18,15.46,7.81a24,24,0,0,1,2.26,4.18,52.12,52.12,0,0,1,2.05,6.19,61.08,61.08,0,0,1,1.32,6.45,69.46,69.46,0,0,1,.7,11.4c.37,2.12.8,4.15,1.29,5.95Zm-36.08-26.63h0a18.59,18.59,0,0,1,1.55,5.19c1.25,8.48-2.92,16.84-2.66,18.59a.36.36,0,0,0,.17.3c1.43.72,15.08,6.24,15.08,6.24a58.87,58.87,0,0,1-8.76-1.56l-9.48-4.91c.57-1.81,2.83-5.61,3.76-10,1.08-5.19.34-13.81.34-13.81h0s.74,8.62-.34,13.81c-.93,4.43-3.19,8.23-3.76,10l9.48,4.91a58.87,58.87,0,0,0,8.76,1.56s-13.65-5.52-15.08-6.24a.36.36,0,0,1-.17-.3c-.26-1.75,3.91-10.11,2.66-18.59a18.59,18.59,0,0,0-1.55-5.19Zm-54.85.05h0l.23.22-.19,0,0-.26h0l0,.26.19,0-.23-.22Zm27.87-34.35h0c3.79,1,14.08.36,14.08.36s-.26.05-.72.11A105.37,105.37,0,0,1,277.41,284c-4.33,0-10.09-7.63-10.09-7.63s4.56,4.94,8.35,6h0c-3.79-1-8.35-6-8.35-6s5.76,7.68,10.09,7.63A105.37,105.37,0,0,0,289,282.79c.46-.06.72-.11.72-.11s-10.29.67-14.08-.36ZM246,303.59h0c.72-7.84,10.71-9.48,10.71-9.48-6.26,3.21-7.05,5.7-8.9,13.1-.57,2.32.62,7.43,0,9.46-.42-2.59-.81-5.07-1.12-7.18a42.39,42.39,0,0,1-.65-5.9h0a42.39,42.39,0,0,0,.65,5.9c.31,2.11.7,4.59,1.12,7.18.66-2-.53-7.14,0-9.46,1.85-7.4,2.64-9.89,8.9-13.1,0,0-10,1.64-10.71,9.48Zm71.23,46.58Z"/></g><rect class="cls-22" x="113.69" y="374.98" width="397.54" height="23.93" transform="translate(-53.31 49.94) rotate(-8.42)"/><text class="cls-23" transform="translate(141.41 415.86) rotate(-8.42) scale(0.75 1)">NAME SURNAME</text><text class="cls-24" transform="translate(283.63 394.8) rotate(-8.42) scale(0.75 1)">Nº 000 000</text><text class="cls-25" transform="translate(381.91 380.25) rotate(-8.42) scale(0.75 1)">01/01</text><text class="cls-26" transform="translate(353.18 377.95) rotate(-8.42) scale(0.75 1)">MEMBER<tspan x="0" y="7.1">SINCE</tspan></text><text class="cls-26" transform="translate(421.48 367.84) rotate(-8.42) scale(0.75 1)">VALID<tspan class="cls-27"><tspan x="0" y="7.1">TRHU</tspan></tspan></text><text class="cls-25" transform="translate(443.02 371.2) rotate(-8.42) scale(0.75 1)">01/01</text></g><path class="cls-28" d="M182.94,309.63a9.85,9.85,0,0,0-2.54-6.27A9.88,9.88,0,0,0,181,316.1a9.84,9.84,0,0,0,2-6.47"/><path class="cls-28" d="M192.24,309.2a11.26,11.26,0,0,1,2.32-7.46,9.9,9.9,0,0,0-13.27.61A11.47,11.47,0,0,1,182,317a9.89,9.89,0,0,0,13.27-.6,11.23,11.23,0,0,1-3-7.22"/><path class="cls-28" d="M193.58,309.14a9.84,9.84,0,0,1,2-6.47,9.91,9.91,0,0,1,.58,12.74,9.88,9.88,0,0,1-2.54-6.27"/><g class="cls-29"><rect class="cls-30" x="159.69" y="314.58" width="27.31" height="27.85" transform="translate(-198.08 331.29) rotate(-62.61)"/></g><g class="cls-31"><rect class="cls-32" x="139.96" y="305.2" width="45.46" height="45.44" transform="translate(-203.31 321.52) rotate(-62.61)"/></g><g class="cls-33"><rect class="cls-34" x="164.5" y="316.63" width="32.67" height="33.91" transform="translate(-198.55 340.69) rotate(-62.61)"/></g><path class="cls-35" d="M194,325.87c2.74-4.56,4.76-4.33,6.71-4.62l112.5-16.66a3.57,3.57,0,0,1,4.06,3L319,319.33a3.58,3.58,0,0,1-3,4.06L191.34,341.85a3.58,3.58,0,0,1-4.06-3,4,4,0,0,1,.42-2.9"/><path class="cls-36" d="M477.42,283.75c-4.79-3.45-7.14-2.57-9.59-2.21l-141,20.88c-2.44.36-4.19,2.24-3.9,4.19l1.73,11.72c.29,1.95,2.51,3.24,5,2.88l156.21-23.13c2.45-.36,4.2-2.24,3.91-4.19a3.4,3.4,0,0,0-1.46-2.63"/><g class="cls-37"><g class="cls-38"><g class="cls-39"><g class="cls-40"><g class="cls-41"><g class="cls-42"><g class="cls-43"><polygon class="cls-44" points="233.6 316 285.45 245.88 354.37 299.38 302.52 369.5 233.6 316"/></g></g></g></g><g class="cls-45"><g class="cls-46"><g class="cls-47"><g class="cls-48"><polygon class="cls-49" points="239.93 318.09 291.78 247.97 360.7 301.47 308.85 371.59 239.93 318.09"/></g></g></g></g><g class="cls-50"><g class="cls-51"><g class="cls-52"><g class="cls-53"><polygon class="cls-54" points="256.67 314.43 308.52 244.31 377.44 297.81 325.59 367.93 256.67 314.43"/></g></g></g></g></g></g></g><text class="cls-55" transform="translate(207.89 335.63) rotate(-8.42) scale(1.03 1)"><tspan class="cls-56">P</tspan><tspan class="cls-57" x="15.01" y="0">AS</tspan><tspan x="49.56" y="0">S</tspan></text><path class="cls-58" d="M210.32,325.21l2.09-.31c1.24-.18,2.41-.09,2.64,1.43s-.87,1.94-2.11,2.13l-2.1.31Zm-1.24,10.24,2.69-.4-.63-4.25,2.84-.42c3.08-.46,4-2.51,3.68-4.44s-1.73-3.63-4.81-3.18l-5.53.82Z"/><path class="cls-58" d="M228.81,322.69l2.67,4.3-4.07.6,1.38-4.9Zm-3.1,10.3.9-2.82,6.21-.92,1.59,2.45,2.61-.39-7.24-11-2.71.4-3.82,12.68Z"/><path class="cls-58" d="M242.09,326.54c.43,2.92,3.1,3.85,5.85,3.45,3.35-.5,4.86-2.39,4.54-4.57-.4-2.69-3.21-2.83-4.15-2.92-3.19-.25-3.8-.37-3.93-1.25s.8-1.49,1.66-1.62,2.1-.26,2.63,1.07l2.67,0c-.41-2.75-2.92-3.48-5.48-3.1-2.22.33-4.42,1.83-4.06,4.27.66,4.44,7.72,1.73,8.09,4.26.18,1.21-1.22,1.69-2.17,1.83s-2.47.15-3-1.38Z"/><path class="cls-58" d="M258.4,324.12c.43,2.93,3.1,3.86,5.85,3.45,3.35-.5,4.86-2.38,4.54-4.56-.4-2.7-3.21-2.84-4.16-2.92-3.18-.26-3.79-.37-3.92-1.25s.8-1.5,1.65-1.63,2.11-.26,2.64,1.07l2.67,0c-.41-2.74-2.92-3.47-5.49-3.09-2.21.33-4.41,1.82-4.05,4.27.66,4.44,7.72,1.73,8.09,4.25.18,1.22-1.22,1.7-2.17,1.84s-2.47.14-3-1.38Z"/><path class="cls-59" d="M283.74,321h0a3.41,3.41,0,0,1-1.1,1.54,3.71,3.71,0,0,1-1.76.74l-.24,0h-.05a3.8,3.8,0,0,1-1.54-.08,4,4,0,0,1-1.4-.65,4.08,4.08,0,0,1-1-1.14A4,4,0,0,1,276,320l-.07-.44v0a4.12,4.12,0,0,1,.73-3,4,4,0,0,1,1.12-1.05,3.9,3.9,0,0,1,1.5-.57l.24,0h0a3.37,3.37,0,0,1,1.68.14,3.29,3.29,0,0,1,1.42,1l-.26.22a3,3,0,0,0-1.27-.86,3.14,3.14,0,0,0-1.53-.13h0l-.25,0a3.25,3.25,0,0,0-1.36.51,3.67,3.67,0,0,0-1,1,3.81,3.81,0,0,0-.6,1.29,3.44,3.44,0,0,0-.07,1.43v0l.07.44a3.6,3.6,0,0,0,.51,1.37,3.91,3.91,0,0,0,1,1,4,4,0,0,0,1.28.61,3.58,3.58,0,0,0,1.42.07h0l.25,0a3.34,3.34,0,0,0,1.58-.66,3,3,0,0,0,1-1.4l.32.11h0l-.32-.11a3,3,0,0,1-1,1.4,3.34,3.34,0,0,1-1.58.66l-.25,0h0a3.58,3.58,0,0,1-1.42-.07,4,4,0,0,1-1.28-.61,3.91,3.91,0,0,1-1-1,3.6,3.6,0,0,1-.51-1.37l-.07-.44v0a3.44,3.44,0,0,1,.07-1.43,3.81,3.81,0,0,1,.6-1.29,3.67,3.67,0,0,1,1-1,3.25,3.25,0,0,1,1.36-.51l.25,0h0a3.14,3.14,0,0,1,1.53.13,3,3,0,0,1,1.27.86l.26-.22a3.29,3.29,0,0,0-1.42-1,3.37,3.37,0,0,0-1.68-.14h0l-.24,0a3.9,3.9,0,0,0-1.5.57,4,4,0,0,0-1.12,1.05,4.12,4.12,0,0,0-.73,3v0l.07.44a4,4,0,0,0,.56,1.51,4.08,4.08,0,0,0,1,1.14,4,4,0,0,0,1.4.65,3.8,3.8,0,0,0,1.54.08h.05l.24,0a3.71,3.71,0,0,0,1.76-.74,3.41,3.41,0,0,0,1.1-1.54Z"/><path class="cls-60" d="M288.87,313.51h0l4.62,7.69-.35.05-1.64-2.72-4.19.67-.72,3.08-.37.06,2-8.74.6-.09h0l-.6.09-2,8.74.37-.06.72-3.08,4.19-.67,1.64,2.72.35-.05-4.62-7.69Zm-1.48,5.33h0l3.92-.61-2.71-4.51-1.21,5.12h0l1.21-5.12,2.71,4.51-3.92.61Z"/><path class="cls-61" d="M302.13,319.84h0l-.38.06-2.43-3.19-3.22.51.55,3.48-.33.05L295,312.54l3.28-.52h0a2.37,2.37,0,0,1,.92,0,2.59,2.59,0,0,1,.85.37,2.37,2.37,0,0,1,.65.65,2.46,2.46,0,0,1,.34.89v.13a2.29,2.29,0,0,1,0,.74,2.49,2.49,0,0,1-.25.69,2.35,2.35,0,0,1-.46.59,2.68,2.68,0,0,1-.61.43l-.13.06,2.48,3.24h0l-2.48-3.24.13-.06a2.68,2.68,0,0,0,.61-.43,2.35,2.35,0,0,0,.46-.59,2.49,2.49,0,0,0,.25-.69,2.29,2.29,0,0,0,0-.74V314a2.46,2.46,0,0,0-.34-.89,2.37,2.37,0,0,0-.65-.65,2.59,2.59,0,0,0-.85-.37,2.37,2.37,0,0,0-.92,0h0l-3.28.52,1.29,8.21.33-.05-.55-3.48,3.22-.51,2.43,3.19.38-.06ZM299,316.43h0a2.12,2.12,0,0,0,.75-.27,2,2,0,0,0,.6-.51,1.91,1.91,0,0,0,.36-.71,1.79,1.79,0,0,0,0-.8v0l0-.1a1.79,1.79,0,0,0-.29-.77,2,2,0,0,0-.56-.56,2.13,2.13,0,0,0-.73-.3,2.1,2.1,0,0,0-.79,0h0l-2.95.47.64,4.07,3-.47h0l-3,.47-.64-4.07,2.95-.47h0a2.1,2.1,0,0,1,.79,0,2.13,2.13,0,0,1,.73.3,2,2,0,0,1,.56.56,1.79,1.79,0,0,1,.29.77l0,.1v0a1.79,1.79,0,0,1,0,.8,1.91,1.91,0,0,1-.36.71,2,2,0,0,1-.6.51,2.12,2.12,0,0,1-.75.27Z"/><path class="cls-62" d="M311.25,314.07h0l0,.23v.05a4.35,4.35,0,0,1,0,1.53,4.08,4.08,0,0,1-.57,1.39,3.78,3.78,0,0,1-1.05,1.06,3.48,3.48,0,0,1-1.45.55l-2.89.46L304,311.12l2.89-.45h0a3.47,3.47,0,0,1,1.51.09,3.64,3.64,0,0,1,1.31.68,4.19,4.19,0,0,1,1,1.15,4.48,4.48,0,0,1,.52,1.49h0a4.48,4.48,0,0,0-.52-1.49,4.19,4.19,0,0,0-1-1.15,3.64,3.64,0,0,0-1.31-.68,3.47,3.47,0,0,0-1.51-.09h0l-2.89.45,1.29,8.22,2.89-.46a3.48,3.48,0,0,0,1.45-.55,3.78,3.78,0,0,0,1.05-1.06,4.08,4.08,0,0,0,.57-1.39,4.35,4.35,0,0,0,0-1.53v-.05l0-.23ZM306.94,311h0l-2.56.4,1.19,7.53,2.56-.4a3.25,3.25,0,0,0,1.32-.51,3.41,3.41,0,0,0,1-1,3.46,3.46,0,0,0,.51-1.27,3.87,3.87,0,0,0,0-1.4v0l0-.24a4.09,4.09,0,0,0-.47-1.35,3.61,3.61,0,0,0-.89-1,3.29,3.29,0,0,0-1.2-.63A3.19,3.19,0,0,0,307,311h0a3.19,3.19,0,0,1,1.38.09,3.29,3.29,0,0,1,1.2.63,3.61,3.61,0,0,1,.89,1,4.09,4.09,0,0,1,.47,1.35l0,.24v0a3.87,3.87,0,0,1,0,1.4,3.46,3.46,0,0,1-.51,1.27,3.41,3.41,0,0,1-1,1,3.25,3.25,0,0,1-1.32.51l-2.56.4-1.19-7.53,2.56-.4Z"/><text class="cls-63" transform="translate(202.5 317.92) rotate(-8.42) scale(1.31 1)"><tspan class="cls-64">P</tspan><tspan x="15.7" y="0">ADEL</tspan></text><text class="cls-23" transform="translate(328.88 316.87) rotate(-8.42) scale(1.3 1)">BRONZE</text><text class="cls-65" transform="translate(396.42 306.49) rotate(-8.42) scale(1.3 1)">M<tspan class="cls-66" x="12.51" y="0">E</tspan><tspan class="cls-67" x="21.95" y="0">M</tspan><tspan class="cls-68" x="34.46" y="0">BE</tspan><tspan class="cls-69" x="53.99" y="0">R</tspan></text></g></g></svg>