<svg xmlns="http://www.w3.org/2000/svg" xmlns:xlink="http://www.w3.org/1999/xlink" viewBox="0 0 728.21 718.61"><defs><style>.cls-1{fill:url(#linear-gradient);}.cls-2{fill:url(#linear-gradient-2);}.cls-3{fill:url(#linear-gradient-3);}.cls-4,.cls-55{fill:none;}.cls-5{clip-path:url(#clip-path);}.cls-6{fill:url(#linear-gradient-4);}.cls-7{clip-path:url(#clip-path-2);}.cls-8{fill:url(#linear-gradient-5);}.cls-9{clip-path:url(#clip-path-3);}.cls-10{fill:url(#linear-gradient-6);}.cls-11{clip-path:url(#clip-path-4);}.cls-12{fill:url(#linear-gradient-7);}.cls-13{fill:url(#linear-gradient-8);}.cls-14{fill:url(#linear-gradient-9);}.cls-15{fill:url(#linear-gradient-10);}.cls-16{fill:url(#linear-gradient-11);}.cls-17,.cls-18,.cls-19,.cls-20{opacity:0.8;}.cls-18,.cls-19,.cls-20{stroke:#fff;}.cls-18,.cls-19,.cls-20,.cls-55{stroke-miterlimit:10;}.cls-18{fill:url(#linear-gradient-12);}.cls-19{fill:url(#linear-gradient-13);}.cls-20{fill:url(#linear-gradient-14);}.cls-21{fill:#211915;}.cls-22,.cls-23,.cls-64{font-size:14.32px;}.cls-22,.cls-23,.cls-24,.cls-32,.cls-60{fill:#fff;}.cls-22,.cls-64{font-family:Couture-BoldItalic, Couture;font-style:italic;}.cls-22,.cls-23,.cls-24,.cls-52,.cls-60,.cls-64{font-weight:700;}.cls-23,.cls-24,.cls-60{font-family:Arial-BoldMT, Arial;}.cls-23{letter-spacing:0.15em;}.cls-24{font-size:7.16px;letter-spacing:0.15em;}.cls-25{fill:#87b137;}.cls-26{clip-path:url(#clip-path-6);}.cls-27{fill:url(#linear-gradient-15);}.cls-28{clip-path:url(#clip-path-7);}.cls-29{fill:url(#linear-gradient-16);}.cls-30{clip-path:url(#clip-path-8);}.cls-31{fill:url(#linear-gradient-17);}.cls-33{fill:#999;}.cls-34{clip-path:url(#clip-path-9);}.cls-35{opacity:0.74;}.cls-36{clip-path:url(#clip-path-10);}.cls-37{opacity:0.4;}.cls-38{clip-path:url(#clip-path-11);}.cls-39{clip-path:url(#clip-path-12);}.cls-40{mask:url(#mask);}.cls-41{fill:url(#linear-gradient-18);}.cls-42{opacity:0.35;}.cls-43{clip-path:url(#clip-path-13);}.cls-44{clip-path:url(#clip-path-14);}.cls-45{mask:url(#mask-2);}.cls-46{fill:url(#linear-gradient-19);}.cls-47{opacity:0.25;}.cls-48{clip-path:url(#clip-path-15);}.cls-49{clip-path:url(#clip-path-16);}.cls-50{mask:url(#mask-3);}.cls-51{fill:url(#linear-gradient-20);}.cls-52{font-size:20.33px;font-family:Couture-Bold, Couture;}.cls-52,.cls-64{fill:#003958;}.cls-53{letter-spacing:0.23em;}.cls-54{letter-spacing:0.3em;}.cls-55{stroke:#003958;stroke-width:0.5px;}.cls-56{fill:url(#linear-gradient-21);}.cls-57{fill:url(#linear-gradient-22);}.cls-58{fill:url(#linear-gradient-23);}.cls-59{fill:url(#linear-gradient-24);}.cls-60{font-size:32.02px;}.cls-61{letter-spacing:-0.07em;}.cls-62{letter-spacing:-0.09em;}.cls-63{letter-spacing:0em;}.cls-64{letter-spacing:0.15em;}.cls-65{letter-spacing:0.15em;}.cls-66{letter-spacing:0.15em;}</style><linearGradient id="linear-gradient" x1="-567.32" y1="1462.76" x2="-566" y2="1462.76" gradientTransform="matrix(46.57, -62.98, -33.81, -26.25, 76205.88, 3076.58)" gradientUnits="userSpaceOnUse"><stop offset="0" stop-color="#333"/><stop offset="0.06" stop-color="#4f4f4f"/><stop offset="0.27" stop-color="#adadad"/><stop offset="0.41" stop-color="#e8e8e8"/><stop offset="0.48" stop-color="#fff"/><stop offset="1" stop-color="#fff"/></linearGradient><linearGradient id="linear-gradient-2" x1="-567.31" y1="1462.72" x2="-565.99" y2="1462.72" gradientTransform="matrix(46.57, -62.98, -33.81, -26.25, 76211.7, 3078.51)" xlink:href="#linear-gradient"/><linearGradient id="linear-gradient-3" x1="-567.26" y1="1462.64" x2="-565.94" y2="1462.64" gradientTransform="matrix(46.57, -62.98, -33.81, -26.25, 76227.1, 3075.14)" xlink:href="#linear-gradient"/><clipPath id="clip-path"><rect id="SVGID" class="cls-4" x="125.76" y="223.11" width="476.69" height="272.39" rx="29.89" ry="29.89" transform="translate(-48.7 57.21) rotate(-8.42)"/></clipPath><linearGradient id="linear-gradient-4" x1="-573.99" y1="1465.85" x2="-572.68" y2="1465.85" gradientTransform="matrix(174.47, 0, 0, -174.47, 100316.39, 256108.98)" gradientUnits="userSpaceOnUse"><stop offset="0" stop-color="#31404f"/><stop offset="0.07" stop-color="#2e3e4d"/><stop offset="1" stop-color="#001e2d"/></linearGradient><clipPath id="clip-path-2"><path id="SVGID-2" data-name="SVGID" class="cls-4" d="M264,236.45c81.88,16.45,217.63,68.65,278.54,234.12l4.06-.6C534,416.55,488.9,296.62,332.92,226.24Z"/></clipPath><linearGradient id="linear-gradient-5" x1="-576.41" y1="1468.93" x2="-575.09" y2="1468.93" gradientTransform="matrix(0, 196.72, 196.72, 0, -288564.48, 113577.06)" gradientUnits="userSpaceOnUse"><stop offset="0" stop-color="#fff"/><stop offset="0.01" stop-color="#fffffc"/><stop offset="0.02" stop-color="#fefef9"/><stop offset="0.49" stop-color="#fafbfb"/><stop offset="0.52" stop-color="#f3f4f4"/><stop offset="0.57" stop-color="#e0e1e1"/><stop offset="0.63" stop-color="#c0c2c2"/><stop offset="0.7" stop-color="#949797"/><stop offset="0.77" stop-color="#5d6060"/><stop offset="0.78" stop-color="#535656"/><stop offset="0.81" stop-color="#585b5b"/><stop offset="0.84" stop-color="#676a69"/><stop offset="0.88" stop-color="#808281"/><stop offset="0.92" stop-color="#a2a3a1"/><stop offset="0.96" stop-color="#cececb"/><stop offset="1" stop-color="#fffefa"/></linearGradient><clipPath id="clip-path-3"><path id="SVGID-3" data-name="SVGID" class="cls-4" d="M392.73,217.39c48,28.75,157.07,109.26,164,251.08l33.53-5a29.88,29.88,0,0,0,25.19-33.94L584.31,219.23A29.9,29.9,0,0,0,550.36,194Z"/></clipPath><linearGradient id="linear-gradient-6" x1="-582.11" y1="1468.73" x2="-580.79" y2="1468.73" gradientTransform="matrix(0, 203.68, 203.68, 0, -298642.21, 118770.59)" gradientUnits="userSpaceOnUse"><stop offset="0" stop-color="#003958"/><stop offset="0.03" stop-color="#285872"/><stop offset="0.08" stop-color="#5a7f93"/><stop offset="0.12" stop-color="#86a1b0"/><stop offset="0.17" stop-color="#abbec8"/><stop offset="0.22" stop-color="#cad6dc"/><stop offset="0.28" stop-color="#e1e8ec"/><stop offset="0.33" stop-color="#f2f5f6"/><stop offset="0.39" stop-color="#fcfdfd"/><stop offset="0.47" stop-color="#fff"/><stop offset="0.5" stop-color="#f9fbfb"/><stop offset="0.54" stop-color="#e9eef1"/><stop offset="0.58" stop-color="#cfdae0"/><stop offset="0.63" stop-color="#aabdc8"/><stop offset="0.67" stop-color="#7b99a9"/><stop offset="0.72" stop-color="#416c83"/><stop offset="0.77" stop-color="#003958"/><stop offset="0.84" stop-color="#436d84"/><stop offset="0.98" stop-color="#e8edf0"/><stop offset="1" stop-color="#fff"/></linearGradient><clipPath id="clip-path-4"><path id="SVGID-4" data-name="SVGID" class="cls-4" d="M451.75,208.65C499.36,252.18,574,341.78,561.26,467.79l29-4.29a29.88,29.88,0,0,0,25.19-33.94L584.31,219.23A29.9,29.9,0,0,0,550.36,194Z"/></clipPath><linearGradient id="linear-gradient-7" x1="-593.25" y1="1455.93" x2="-591.93" y2="1455.93" gradientTransform="matrix(-58.97, 0, 0, 58.97, -34352.13, -85526.73)" xlink:href="#linear-gradient-4"/><linearGradient id="linear-gradient-8" x1="-503.21" y1="1527.36" x2="-501.89" y2="1527.36" gradientTransform="matrix(9.12, -1.35, -1.35, -9.12, 6904.95, 13697.89)" gradientUnits="userSpaceOnUse"><stop offset="0" stop-color="#fff"/><stop offset="0.09" stop-color="#f5f7f8"/><stop offset="0.23" stop-color="#dae2e7"/><stop offset="0.42" stop-color="#aec0ca"/><stop offset="0.64" stop-color="#7291a2"/><stop offset="0.89" stop-color="#255670"/><stop offset="1" stop-color="#003958"/></linearGradient><linearGradient id="linear-gradient-9" x1="-521.26" y1="1512.7" x2="-519.94" y2="1512.7" gradientTransform="matrix(11.95, -1.77, -1.77, -11.95, 9157.1, 17602.9)" xlink:href="#linear-gradient-8"/><linearGradient id="linear-gradient-10" x1="-518.77" y1="1514.68" x2="-517.45" y2="1514.68" gradientTransform="matrix(11.46, -1.7, -1.7, -11.46, 8767.46, 16928.08)" xlink:href="#linear-gradient-8"/><linearGradient id="linear-gradient-11" x1="-507.39" y1="1523.74" x2="-506.07" y2="1523.74" gradientTransform="matrix(9.66, -1.43, -1.43, -9.66, 7332.14, 14440.66)" xlink:href="#linear-gradient-8"/><linearGradient id="linear-gradient-12" x1="269.24" y1="470.92" x2="349.26" y2="470.92" gradientTransform="translate(-146.04 -30.55) rotate(-8.42)" xlink:href="#linear-gradient-8"/><linearGradient id="linear-gradient-13" x1="-574.37" y1="1468.91" x2="-573.05" y2="1468.91" gradientTransform="matrix(147.4, -21.83, -21.83, -147.4, 116972.93, 204445.46)" xlink:href="#linear-gradient-8"/><linearGradient id="linear-gradient-14" x1="366.81" y1="464.32" x2="486.1" y2="464.32" gradientTransform="translate(-146.04 -30.55) rotate(-8.42)" xlink:href="#linear-gradient-8"/><clipPath id="clip-path-6"><path id="SVGID-6" data-name="SVGID" class="cls-4" d="M198.85,410.43l22.34-22.08c-.29-.18-.58-.36-.86-.56A15.39,15.39,0,0,1,217.4,385Z"/></clipPath><linearGradient id="linear-gradient-15" x1="-542.03" y1="1455.97" x2="-540.71" y2="1455.97" gradientTransform="matrix(23.67, 0, 0, -23.67, 13025.4, 34866.65)" xlink:href="#linear-gradient-8"/><clipPath id="clip-path-7"><path id="SVGID-7" data-name="SVGID" class="cls-4" d="M180.28,419.15l34.16-37.81a15.32,15.32,0,0,1-1.57-6.9Z"/></clipPath><linearGradient id="linear-gradient-16" x1="-558.06" y1="1459.98" x2="-556.75" y2="1459.98" gradientTransform="matrix(41.57, 0, 0, -41.57, 23369.43, 61091.78)" xlink:href="#linear-gradient-8"/><clipPath id="clip-path-8"><path id="SVGID-8" data-name="SVGID" class="cls-4" d="M204.75,418.6,232.9,389a15.31,15.31,0,0,1-7.05.62Z"/></clipPath><linearGradient id="linear-gradient-17" x1="-549.67" y1="1457.73" x2="-548.35" y2="1457.73" gradientTransform="matrix(29.79, 0, 0, -29.79, 16574.66, 43832.08)" xlink:href="#linear-gradient-8"/><clipPath id="clip-path-9"><path id="SVGID-9" data-name="SVGID" class="cls-4" d="M234.76,394.27l-7.66,12.17a4.84,4.84,0,0,0-.5,3.52,4.32,4.32,0,0,0,4.91,3.64l150.85-22.33a4.33,4.33,0,0,0,3.65-4.92l-2.1-14.18a4.33,4.33,0,0,0-4.92-3.64L242.88,388.68l-1.47.19c-1.93.29-4,1-6.65,5.4"/></clipPath><clipPath id="clip-path-10"><rect id="SVGID-10" data-name="SVGID" class="cls-4" x="318.91" y="332.49" width="101.69" height="79.08" transform="translate(-50.5 58.17) rotate(-8.42)"/></clipPath><clipPath id="clip-path-11"><rect id="SVGID-11" data-name="SVGID" class="cls-4" x="318.79" y="334.55" width="73.8" height="75.45" transform="translate(-50.69 56.12) rotate(-8.42)"/></clipPath><clipPath id="clip-path-12"><polyline id="SVGID-12" data-name="SVGID" class="cls-4" points="326.52 414.73 324.45 413.23 384.87 329.82 386.94 331.32"/></clipPath><mask id="mask" x="282.63" y="297.49" width="146.13" height="149.57" maskUnits="userSpaceOnUse"><polygon class="cls-1" points="282.63 382.33 345.37 297.49 428.76 362.22 366.02 447.06 282.63 382.33"/></mask><linearGradient id="linear-gradient-18" x1="-567.32" y1="1462.76" x2="-566" y2="1462.76" gradientTransform="matrix(46.57, -62.98, -33.81, -26.25, 76205.88, 3076.58)" gradientUnits="userSpaceOnUse"><stop offset="0" stop-color="#003958"/><stop offset="0.13" stop-color="#4f778c"/><stop offset="0.3" stop-color="#adbfc9"/><stop offset="0.42" stop-color="#e8edf0"/><stop offset="0.48" stop-color="#fff"/><stop offset="0.61" stop-color="#bccbd3"/><stop offset="0.88" stop-color="#36637b"/><stop offset="1" stop-color="#003958"/></linearGradient><clipPath id="clip-path-13"><rect id="SVGID-13" data-name="SVGID" class="cls-4" x="326.45" y="337.08" width="73.8" height="75.45" transform="translate(-50.98 57.26) rotate(-8.42)"/></clipPath><clipPath id="clip-path-14"><rect id="SVGID-14" data-name="SVGID" class="cls-4" x="311.86" y="373.53" width="102.99" height="2.56" transform="translate(-153.34 449.22) rotate(-54.09)"/></clipPath><mask id="mask-2" x="290.29" y="300.02" width="146.13" height="149.57" maskUnits="userSpaceOnUse"><polygon class="cls-2" points="290.29 384.86 353.02 300.02 436.41 364.75 373.67 449.59 290.29 384.86"/></mask><linearGradient id="linear-gradient-19" x1="-567.31" y1="1462.72" x2="-565.99" y2="1462.72" gradientTransform="matrix(46.57, -62.98, -33.81, -26.25, 76211.7, 3078.51)" xlink:href="#linear-gradient-18"/><clipPath id="clip-path-15"><rect id="SVGID-15" data-name="SVGID" class="cls-4" x="346.71" y="332.66" width="73.8" height="75.45" transform="translate(-50.11 60.18) rotate(-8.42)"/></clipPath><clipPath id="clip-path-16"><rect id="SVGID-16" data-name="SVGID" class="cls-4" x="332.12" y="369.1" width="102.99" height="2.56" transform="translate(-141.37 463.81) rotate(-54.09)"/></clipPath><mask id="mask-3" x="310.55" y="295.6" width="146.13" height="149.57" maskUnits="userSpaceOnUse"><polygon class="cls-3" points="310.55 380.43 373.28 295.6 456.67 360.32 393.93 445.16 310.55 380.43"/></mask><linearGradient id="linear-gradient-20" x1="-567.26" y1="1462.64" x2="-565.94" y2="1462.64" gradientTransform="matrix(46.57, -62.98, -33.81, -26.25, 76227.1, 3075.14)" xlink:href="#linear-gradient-18"/><linearGradient id="linear-gradient-21" x1="-482.47" y1="1543.53" x2="-481.15" y2="1543.53" gradientTransform="matrix(7.38, -1.09, -1.09, -7.38, 5582.2, 11253.52)" xlink:href="#linear-gradient-4"/><linearGradient id="linear-gradient-22" x1="424.94" y1="483.08" x2="434.83" y2="483.08" gradientTransform="translate(-146.04 -30.55) rotate(-8.42)" xlink:href="#linear-gradient-4"/><linearGradient id="linear-gradient-23" x1="437.38" y1="482.97" x2="445.47" y2="482.97" gradientTransform="translate(-146.04 -30.55) rotate(-8.42)" xlink:href="#linear-gradient-4"/><linearGradient id="linear-gradient-24" x1="448.36" y1="482.87" x2="457.18" y2="482.87" gradientTransform="translate(-146.04 -30.55) rotate(-8.42)" xlink:href="#linear-gradient-4"/></defs><title>Asset 6</title><g id="Layer_2" data-name="Layer 2"><g id="Layer_1-2" data-name="Layer 1"><g class="cls-5"><rect class="cls-6" x="89.66" y="119.8" width="548.89" height="479.02" transform="translate(-145.34 313.01) rotate(-39.43)"/></g><g class="cls-7"><rect class="cls-8" x="241.96" y="199.44" width="326.66" height="307.54" transform="translate(7.87 715.25) rotate(-83.41)"/></g><g class="cls-9"><rect class="cls-10" x="411.65" y="202.06" width="189.24" height="272.39" transform="translate(-44.09 77.81) rotate(-8.42)"/></g><g class="cls-11"><rect class="cls-12" x="460.73" y="193.11" width="150.12" height="281.54" transform="translate(-60.76 127.29) rotate(-12.83)"/></g><g class="cls-5"><polygon class="cls-13" points="264.15 445.77 264.15 445.77 262.52 442.13 252.43 446.63 253.11 448.13 264.15 445.77 264.15 445.77 264.15 445.77 253.11 448.13 252.43 446.63 262.52 442.13 264.15 445.77 264.15 445.77"/><polygon class="cls-14" points="261.98 435.89 261.98 435.89 248.15 442.06 249.53 445.14 263.35 438.96 261.98 435.89 261.98 435.89 261.98 435.89 263.35 438.96 249.53 445.14 248.15 442.06 261.98 435.89 261.98 435.89"/><polygon class="cls-15" points="263.35 438.96 263.35 438.96 262.52 442.13 252.43 446.63 249.53 445.14 263.35 438.96 263.35 438.96 263.35 438.96 249.53 445.14 252.43 446.63 262.52 442.13 263.35 438.96 263.35 438.96"/><path class="cls-16" d="M262.29,452.53h0a18.3,18.3,0,0,1,3.74-.94c.23,0,.45-.07.68-.09L265,447.64l-11,2.37,2.55,5.71a23,23,0,0,1,5.8-3.19h0a23,23,0,0,0-5.8,3.19L253.94,450l11-2.37,1.73,3.86c-.23,0-.45.05-.68.09a18.3,18.3,0,0,0-3.74.94Z"/><g class="cls-17"><path class="cls-18" d="M261.16,356.06h0C254.69,344.41,246,339.51,237.7,338c8.6,3.9,18.18,12.18,22,27a49,49,0,0,1,1,5,45.16,45.16,0,0,1-5.32,29.16,56.67,56.67,0,0,0,2.9-27.25,46.37,46.37,0,0,0-4.77-14.78,39.32,39.32,0,0,0-3.61-5.71,32,32,0,0,0-57.08,24c.07.46.14.91.23,1.36a40.37,40.37,0,0,0,1.84,6.5c8.13,21.74,30,29.45,30,29.45a45.55,45.55,0,0,1-28.32-19.63,42.16,42.16,0,0,1-6.75-17.17,38.84,38.84,0,0,1,1.35-17.26,31.49,31.49,0,0,0-4.17,21.55,45,45,0,0,0,2,8c11,31.86,47.17,31,59.65,50.86l5.22-2.33,5.22-2.33a27.78,27.78,0,0,1-.77-3.55c-2.62-17.75,11.16-37.73,7.92-59.66a44.34,44.34,0,0,0-5.2-15.16h0a44.34,44.34,0,0,1,5.2,15.16c3.24,21.93-10.54,41.91-7.92,59.66a27.78,27.78,0,0,0,.77,3.55L254,436.76l-5.22,2.33c-12.48-19.86-48.62-19-59.65-50.86a45,45,0,0,1-2-8,31.49,31.49,0,0,1,4.17-21.55,38.84,38.84,0,0,0-1.35,17.26,42.16,42.16,0,0,0,6.75,17.17A45.55,45.55,0,0,0,225,412.74s-21.92-7.71-30-29.45a40.37,40.37,0,0,1-1.84-6.5c-.09-.45-.16-.9-.23-1.36a32,32,0,0,1,57.08-24,39.32,39.32,0,0,1,3.61,5.71,46.37,46.37,0,0,1,4.77,14.78,56.67,56.67,0,0,1-2.9,27.25A45.16,45.16,0,0,0,260.77,370a49,49,0,0,0-1-5c-3.86-14.82-13.44-23.1-22-27,8.34,1.56,17,6.46,23.46,18.11Zm-17,2.62h0a1.09,1.09,0,0,1,.31-.08,1.14,1.14,0,0,1,1.22.67,1.71,1.71,0,0,1,.09.3,1.16,1.16,0,0,1-.67,1.22.91.91,0,0,1-.31.09,1.16,1.16,0,0,1-1.22-.67,1.71,1.71,0,0,1-.09-.3,1.18,1.18,0,0,1,.67-1.23h0a1.18,1.18,0,0,0-.67,1.23,1.71,1.71,0,0,0,.09.3,1.16,1.16,0,0,0,1.22.67.91.91,0,0,0,.31-.09,1.16,1.16,0,0,0,.67-1.22,1.71,1.71,0,0,0-.09-.3,1.14,1.14,0,0,0-1.22-.67,1.09,1.09,0,0,0-.31.08ZM249,369.56h0a1.71,1.71,0,0,1,.3-.09,1.16,1.16,0,0,1,1.22.67.85.85,0,0,1,.09.31,1.16,1.16,0,0,1-.67,1.22l-.3.09a1.15,1.15,0,0,1-1.22-.68.8.8,0,0,1-.09-.3,1.16,1.16,0,0,1,.67-1.22h0a1.16,1.16,0,0,0-.67,1.22.8.8,0,0,0,.09.3,1.15,1.15,0,0,0,1.22.68l.3-.09a1.16,1.16,0,0,0,.67-1.22.85.85,0,0,0-.09-.31,1.16,1.16,0,0,0-1.22-.67,1.71,1.71,0,0,0-.3.09Zm-11.47-14.44h0a.8.8,0,0,1,.3-.09,1.16,1.16,0,0,1,1.22.67,1.71,1.71,0,0,1,.09.3,1.18,1.18,0,0,1-.67,1.23,1.09,1.09,0,0,1-.31.08,1.14,1.14,0,0,1-1.22-.67,1.71,1.71,0,0,1-.09-.3,1.15,1.15,0,0,1,.68-1.22h0a1.15,1.15,0,0,0-.68,1.22,1.71,1.71,0,0,0,.09.3,1.14,1.14,0,0,0,1.22.67,1.09,1.09,0,0,0,.31-.08,1.18,1.18,0,0,0,.67-1.23,1.71,1.71,0,0,0-.09-.3,1.16,1.16,0,0,0-1.22-.67.8.8,0,0,0-.3.09ZM242.41,366h0a1.11,1.11,0,0,1,.3-.08,1.15,1.15,0,0,1,1.23.67,1.11,1.11,0,0,1,.08.3,1.13,1.13,0,0,1-.67,1.22,1.14,1.14,0,0,1-.3.09,1.16,1.16,0,0,1-1.22-.67,1.14,1.14,0,0,1-.09-.3,1.18,1.18,0,0,1,.67-1.23h0a1.18,1.18,0,0,0-.67,1.23,1.14,1.14,0,0,0,.09.3,1.16,1.16,0,0,0,1.22.67,1.14,1.14,0,0,0,.3-.09,1.13,1.13,0,0,0,.67-1.22,1.11,1.11,0,0,0-.08-.3,1.15,1.15,0,0,0-1.23-.67,1.11,1.11,0,0,0-.3.08Zm4.86,10.88h0l.3-.09a1.16,1.16,0,0,1,1.22.67.86.86,0,0,1,.09.3,1.18,1.18,0,0,1-.67,1.23,1.11,1.11,0,0,1-.3.08,1.15,1.15,0,0,1-1.23-.67,1,1,0,0,1-.08-.3,1.14,1.14,0,0,1,.67-1.22h0a1.14,1.14,0,0,0-.67,1.22,1,1,0,0,0,.08.3,1.15,1.15,0,0,0,1.23.67,1.11,1.11,0,0,0,.3-.08,1.18,1.18,0,0,0,.67-1.23.86.86,0,0,0-.09-.3,1.16,1.16,0,0,0-1.22-.67l-.3.09Zm-39.06,13.45h0a1.11,1.11,0,0,1-.3.08,1.15,1.15,0,0,1-1.23-.67,1.11,1.11,0,0,1-.08-.3,1.13,1.13,0,0,1,.67-1.22,1.14,1.14,0,0,1,.3-.09,1.16,1.16,0,0,1,1.22.67.86.86,0,0,1,.09.3,1.18,1.18,0,0,1-.67,1.23h0a1.18,1.18,0,0,0,.67-1.23.86.86,0,0,0-.09-.3,1.16,1.16,0,0,0-1.22-.67,1.14,1.14,0,0,0-.3.09,1.13,1.13,0,0,0-.67,1.22,1.11,1.11,0,0,0,.08.3,1.15,1.15,0,0,0,1.23.67,1.11,1.11,0,0,0,.3-.08Zm-4.86-10.88h0a1.71,1.71,0,0,1-.3.09,1.16,1.16,0,0,1-1.22-.67,1.14,1.14,0,0,1-.09-.3,1.18,1.18,0,0,1,.67-1.23l.3-.09a1.17,1.17,0,0,1,1.23.68,1,1,0,0,1,.08.3,1.14,1.14,0,0,1-.67,1.22h0a1.14,1.14,0,0,0,.67-1.22,1,1,0,0,0-.08-.3,1.17,1.17,0,0,0-1.23-.68l-.3.09a1.18,1.18,0,0,0-.67,1.23,1.14,1.14,0,0,0,.09.3,1.16,1.16,0,0,0,1.22.67,1.71,1.71,0,0,0,.3-.09Zm11.48,14.44h0a.86.86,0,0,1-.3.09,1.18,1.18,0,0,1-1.23-.67,1.71,1.71,0,0,1-.09-.3,1.15,1.15,0,0,1,.68-1.22.8.8,0,0,1,.3-.09,1.16,1.16,0,0,1,1.31,1,1.16,1.16,0,0,1-.67,1.22h0a1.16,1.16,0,0,0,.67-1.22,1.16,1.16,0,0,0-1.31-1,.8.8,0,0,0-.3.09,1.15,1.15,0,0,0-.68,1.22,1.71,1.71,0,0,0,.09.3,1.16,1.16,0,0,0,1.23.67.86.86,0,0,0,.3-.09ZM210,383h0l-.3.09a1.15,1.15,0,0,1-1.22-.68.86.86,0,0,1-.09-.3,1.14,1.14,0,0,1,.67-1.22l.3-.09a1.16,1.16,0,0,1,1.22.67.85.85,0,0,1,.09.31A1.16,1.16,0,0,1,210,383h0a1.16,1.16,0,0,0,.67-1.22.85.85,0,0,0-.09-.31,1.16,1.16,0,0,0-1.22-.67l-.3.09a1.14,1.14,0,0,0-.67,1.22.86.86,0,0,0,.09.3,1.15,1.15,0,0,0,1.22.68l.3-.09Zm-4.85-10.88h0a1.21,1.21,0,0,1-.31.09,1.16,1.16,0,0,1-1.22-.67,1.71,1.71,0,0,1-.09-.3,1.18,1.18,0,0,1,.67-1.23,1.58,1.58,0,0,1,.31-.09,1.16,1.16,0,0,1,1.22.68,1.71,1.71,0,0,1,.09.3,1.16,1.16,0,0,1-.67,1.22h0a1.16,1.16,0,0,0,.67-1.22,1.71,1.71,0,0,0-.09-.3,1.16,1.16,0,0,0-1.22-.68,1.58,1.58,0,0,0-.31.09,1.18,1.18,0,0,0-.67,1.23,1.71,1.71,0,0,0,.09.3,1.16,1.16,0,0,0,1.22.67,1.21,1.21,0,0,0,.31-.09Zm17.44-16.84h0a1,1,0,0,1,.3-.08,1.14,1.14,0,0,1,1.22.67,1.71,1.71,0,0,1,.09.3,1.16,1.16,0,0,1-.67,1.22,1.11,1.11,0,0,1-.31.09,1.16,1.16,0,0,1-1.22-.67,1.58,1.58,0,0,1-.09-.31,1.16,1.16,0,0,1,.68-1.22h0a1.16,1.16,0,0,0-.68,1.22,1.58,1.58,0,0,0,.09.31,1.16,1.16,0,0,0,1.22.67,1.11,1.11,0,0,0,.31-.09,1.16,1.16,0,0,0,.67-1.22,1.71,1.71,0,0,0-.09-.3,1.14,1.14,0,0,0-1.22-.67,1,1,0,0,0-.3.08Zm4.85,10.88h0a1.14,1.14,0,0,1,.3-.09,1.18,1.18,0,0,1,1.23.67,1.09,1.09,0,0,1,.08.31,1.14,1.14,0,0,1-.67,1.22,1.71,1.71,0,0,1-.3.09,1.15,1.15,0,0,1-1.22-.68,1,1,0,0,1-.09-.3,1.16,1.16,0,0,1,.67-1.22h0a1.16,1.16,0,0,0-.67,1.22,1,1,0,0,0,.09.3,1.15,1.15,0,0,0,1.22.68,1.71,1.71,0,0,0,.3-.09,1.14,1.14,0,0,0,.67-1.22,1.09,1.09,0,0,0-.08-.31,1.18,1.18,0,0,0-1.23-.67l-.3.09ZM232.27,377h0a1.11,1.11,0,0,1,.3-.08,1.13,1.13,0,0,1,1.22.67.86.86,0,0,1,.09.3,1.16,1.16,0,0,1-.67,1.22.86.86,0,0,1-.3.09,1.18,1.18,0,0,1-1.23-.67,1.11,1.11,0,0,1-.08-.3,1.15,1.15,0,0,1,.67-1.23h0a1.15,1.15,0,0,0-.67,1.23,1.11,1.11,0,0,0,.08.3,1.18,1.18,0,0,0,1.23.67.86.86,0,0,0,.3-.09,1.16,1.16,0,0,0,.67-1.22.86.86,0,0,0-.09-.3,1.13,1.13,0,0,0-1.22-.67,1.11,1.11,0,0,0-.3.08Zm4.85,10.88h0a1.58,1.58,0,0,1,.31-.09,1.16,1.16,0,0,1,1.22.67,1.58,1.58,0,0,1,.09.31,1.17,1.17,0,0,1-.67,1.22,1.58,1.58,0,0,1-.31.09,1.16,1.16,0,0,1-1.22-.67,1.58,1.58,0,0,1-.09-.31,1.16,1.16,0,0,1,.67-1.22h0a1.16,1.16,0,0,0-.67,1.22,1.58,1.58,0,0,0,.09.31,1.16,1.16,0,0,0,1.22.67,1.58,1.58,0,0,0,.31-.09,1.17,1.17,0,0,0,.67-1.22,1.58,1.58,0,0,0-.09-.31,1.16,1.16,0,0,0-1.22-.67,1.58,1.58,0,0,0-.31.09ZM216,351.71h0a.86.86,0,0,1,.23-.06,1.14,1.14,0,0,1,1.21.66,1.71,1.71,0,0,1,.09.3,1.16,1.16,0,0,1-.61,1.18.86.86,0,0,1-.23.06,1.14,1.14,0,0,1-1.21-.66.86.86,0,0,1-.09-.3,1.15,1.15,0,0,1,.61-1.18h0a1.14,1.14,0,0,0,.69,2.14.86.86,0,0,0,.23-.06,1.16,1.16,0,0,0,.61-1.18,1.71,1.71,0,0,0-.09-.3,1.14,1.14,0,0,0-1.21-.66.86.86,0,0,0-.23.06Zm4.85,10.88h0a1,1,0,0,1,.23-.06,1.13,1.13,0,0,1,1.22.66,1,1,0,0,1,.08.29,1.14,1.14,0,0,1-.6,1.18l-.23.06a1.14,1.14,0,0,1-1.22-.66,1,1,0,0,1-.08-.29,1.14,1.14,0,0,1,.6-1.18h0a1.14,1.14,0,0,0-.6,1.18,1,1,0,0,0,.08.29,1.14,1.14,0,0,0,1.22.66l.23-.06a1.14,1.14,0,0,0,.6-1.18,1,1,0,0,0-.08-.29,1.13,1.13,0,0,0-1.22-.66,1,1,0,0,0-.23.06Zm4.86,10.87h0a.86.86,0,0,1,.23-.06,1.14,1.14,0,0,1,1.21.66.86.86,0,0,1,.09.3,1.16,1.16,0,0,1-.6,1.18l-.24.06a1.14,1.14,0,0,1-1.21-.66,1.71,1.71,0,0,1-.09-.3,1.15,1.15,0,0,1,.61-1.18h0a1.15,1.15,0,0,0-.61,1.18,1.71,1.71,0,0,0,.09.3,1.14,1.14,0,0,0,1.21.66l.24-.06a1.16,1.16,0,0,0,.6-1.18.86.86,0,0,0-.09-.3,1.14,1.14,0,0,0-1.21-.66.86.86,0,0,0-.23.06Zm4.85,10.88h0l.24-.06a1.13,1.13,0,0,1,1.21.66,1.4,1.4,0,0,1,.09.29,1.16,1.16,0,0,1-.61,1.19l-.23.05a1.12,1.12,0,0,1-1.21-.65.86.86,0,0,1-.09-.3,1.16,1.16,0,0,1,.6-1.18h0a1.16,1.16,0,0,0-.6,1.18.86.86,0,0,0,.09.3,1.12,1.12,0,0,0,1.21.65l.23-.05a1.16,1.16,0,0,0,.61-1.19,1.4,1.4,0,0,0-.09-.29,1.13,1.13,0,0,0-1.21-.66l-.24.06Zm4.86,10.87h0l.23-.06a1.16,1.16,0,0,1,1.22.66,1.11,1.11,0,0,1,.08.3,1.14,1.14,0,0,1-.6,1.18,1,1,0,0,1-.23.06,1.16,1.16,0,0,1-1.22-.66,1.11,1.11,0,0,1-.08-.3,1.15,1.15,0,0,1,.6-1.18h0a1.15,1.15,0,0,0-.6,1.18,1.11,1.11,0,0,0,.08.3,1.16,1.16,0,0,0,1.22.66,1,1,0,0,0,.23-.06,1.14,1.14,0,0,0,.6-1.18,1.11,1.11,0,0,0-.08-.3,1.16,1.16,0,0,0-1.22-.66l-.23.06ZM214.32,359h0a1.71,1.71,0,0,1,.3-.09,1.16,1.16,0,0,1,1.22.67.85.85,0,0,1,.09.31,1.16,1.16,0,0,1-.67,1.22l-.3.09a1.18,1.18,0,0,1-1.23-.67,1.09,1.09,0,0,1-.08-.31,1.14,1.14,0,0,1,.67-1.22h0a1.14,1.14,0,0,0-.67,1.22,1.09,1.09,0,0,0,.08.31,1.18,1.18,0,0,0,1.23.67l.3-.09a1.16,1.16,0,0,0,.67-1.22.85.85,0,0,0-.09-.31,1.16,1.16,0,0,0-1.22-.67,1.71,1.71,0,0,0-.3.09Zm4.85,10.88h0a.85.85,0,0,1,.31-.09,1.16,1.16,0,0,1,1.22.67,1.71,1.71,0,0,1,.09.3,1.12,1.12,0,0,1-1,1.31,1.14,1.14,0,0,1-1.22-.67,1.71,1.71,0,0,1-.09-.3,1.16,1.16,0,0,1,.67-1.22h0a1.16,1.16,0,0,0-.67,1.22,1.71,1.71,0,0,0,.09.3,1.14,1.14,0,0,0,1.22.67,1.12,1.12,0,0,0,1-1.31,1.71,1.71,0,0,0-.09-.3,1.16,1.16,0,0,0-1.22-.67.85.85,0,0,0-.31.09ZM224,380.72h0a1.11,1.11,0,0,1,.3-.08,1.13,1.13,0,0,1,1.22.67.86.86,0,0,1,.09.3,1.16,1.16,0,0,1-1,1.31,1.16,1.16,0,0,1-1.22-.67.86.86,0,0,1-.09-.3,1.16,1.16,0,0,1,.67-1.23h0a1.16,1.16,0,0,0-.67,1.23.86.86,0,0,0,.09.3,1.16,1.16,0,0,0,1.22.67,1.16,1.16,0,0,0,1-1.31.86.86,0,0,0-.09-.3,1.13,1.13,0,0,0-1.22-.67,1.11,1.11,0,0,0-.3.08Zm4.86,10.88h0a1.49,1.49,0,0,1,.3-.09,1.16,1.16,0,0,1,1.22.67,1.14,1.14,0,0,1,.09.3,1.18,1.18,0,0,1-.67,1.23l-.3.09a1.17,1.17,0,0,1-1.23-.68,1,1,0,0,1-.08-.3,1.13,1.13,0,0,1,.67-1.22h0a1.13,1.13,0,0,0-.67,1.22,1,1,0,0,0,.08.3,1.17,1.17,0,0,0,1.23.68l.3-.09a1.18,1.18,0,0,0,.67-1.23,1.14,1.14,0,0,0-.09-.3,1.16,1.16,0,0,0-1.22-.67,1.49,1.49,0,0,0-.3.09ZM207.7,355.4h0a1.11,1.11,0,0,1,.3-.08,1.13,1.13,0,0,1,1.22.67.86.86,0,0,1,.09.3,1.14,1.14,0,0,1-.67,1.22.86.86,0,0,1-.3.09,1.16,1.16,0,0,1-1.22-.67.86.86,0,0,1-.09-.3,1.16,1.16,0,0,1,.67-1.23h0a1.16,1.16,0,0,0-.67,1.23.86.86,0,0,0,.09.3,1.16,1.16,0,0,0,1.22.67.86.86,0,0,0,.3-.09,1.14,1.14,0,0,0,.67-1.22.86.86,0,0,0-.09-.3,1.13,1.13,0,0,0-1.22-.67,1.11,1.11,0,0,0-.3.08Zm4.86,10.88h0a1.49,1.49,0,0,1,.3-.09,1.16,1.16,0,0,1,1.22.67,1.81,1.81,0,0,1,.09.31,1.16,1.16,0,0,1-.67,1.22,1.58,1.58,0,0,1-.31.09,1.16,1.16,0,0,1-1.22-.68,1.49,1.49,0,0,1-.09-.3,1.16,1.16,0,0,1,.68-1.22h0a1.16,1.16,0,0,0-.68,1.22,1.49,1.49,0,0,0,.09.3,1.16,1.16,0,0,0,1.22.68,1.58,1.58,0,0,0,.31-.09,1.16,1.16,0,0,0,.67-1.22,1.81,1.81,0,0,0-.09-.31,1.16,1.16,0,0,0-1.22-.67,1.49,1.49,0,0,0-.3.09Zm4.85,10.88h0a.86.86,0,0,1,.3-.09,1.16,1.16,0,0,1,1.23.67,1.11,1.11,0,0,1,.08.3,1.13,1.13,0,0,1-.67,1.22.86.86,0,0,1-.3.09,1.16,1.16,0,0,1-1.31-1,1.16,1.16,0,0,1,.67-1.22h0a1.16,1.16,0,0,0-.67,1.22,1.16,1.16,0,0,0,1.31,1,.86.86,0,0,0,.3-.09A1.13,1.13,0,0,0,219,378a1.11,1.11,0,0,0-.08-.3,1.18,1.18,0,0,0-1.23-.67.86.86,0,0,0-.3.09ZM222.27,388h0l.3-.09a1.15,1.15,0,0,1,1.22.68.86.86,0,0,1,.09.3,1.16,1.16,0,0,1-.67,1.22,1.14,1.14,0,0,1-.3.09,1.18,1.18,0,0,1-1.23-.67,1.11,1.11,0,0,1-.08-.3,1.15,1.15,0,0,1,.67-1.23h0a1.15,1.15,0,0,0-.67,1.23,1.11,1.11,0,0,0,.08.3,1.18,1.18,0,0,0,1.23.67l.3-.09a1.16,1.16,0,0,0,.67-1.22.86.86,0,0,0-.09-.3,1.15,1.15,0,0,0-1.22-.68l-.3.09Zm-.82,9.42h0a1.58,1.58,0,0,1-.31.09,1.17,1.17,0,0,1-1.22-.67,1.58,1.58,0,0,1-.09-.31,1.16,1.16,0,0,1,.68-1.22,1.49,1.49,0,0,1,.3-.09,1.16,1.16,0,0,1,1.22.68,1.49,1.49,0,0,1,.09.3,1.16,1.16,0,0,1-.67,1.22h0a1.16,1.16,0,0,0,.67-1.22,1.49,1.49,0,0,0-.09-.3,1.16,1.16,0,0,0-1.22-.68,1.49,1.49,0,0,0-.3.09,1.16,1.16,0,0,0-.68,1.22,1.58,1.58,0,0,0,.09.31,1.17,1.17,0,0,0,1.22.67,1.58,1.58,0,0,0,.31-.09Zm-4.86-10.88h0a.86.86,0,0,1-.3.09,1.14,1.14,0,0,1-1.22-.67.86.86,0,0,1-.09-.3,1.14,1.14,0,0,1,.67-1.22.86.86,0,0,1,.3-.09,1.14,1.14,0,0,1,1.22.67.86.86,0,0,1,.09.3,1.14,1.14,0,0,1-.67,1.22h0a1.14,1.14,0,0,0,.67-1.22.86.86,0,0,0-.09-.3,1.14,1.14,0,0,0-1.22-.67.86.86,0,0,0-.3.09,1.14,1.14,0,0,0-.67,1.22.86.86,0,0,0,.09.3,1.14,1.14,0,0,0,1.22.67.86.86,0,0,0,.3-.09Zm-4.86-10.87h0a1.49,1.49,0,0,1-.3.09,1.16,1.16,0,0,1-1.22-.67,1.58,1.58,0,0,1-.09-.31,1.16,1.16,0,0,1,.67-1.22,1.58,1.58,0,0,1,.31-.09,1.17,1.17,0,0,1,1.22.67,1.58,1.58,0,0,1,.09.31,1.16,1.16,0,0,1-.68,1.22h0a1.16,1.16,0,0,0,.68-1.22,1.58,1.58,0,0,0-.09-.31,1.17,1.17,0,0,0-1.22-.67,1.58,1.58,0,0,0-.31.09,1.16,1.16,0,0,0-.67,1.22,1.58,1.58,0,0,0,.09.31,1.16,1.16,0,0,0,1.22.67,1.49,1.49,0,0,0,.3-.09Zm-4.85-10.88h0a.86.86,0,0,1-.3.09,1.18,1.18,0,0,1-1.23-.67,1.71,1.71,0,0,1-.09-.3,1.17,1.17,0,0,1,.68-1.23,1.11,1.11,0,0,1,.3-.08,1.13,1.13,0,0,1,1.22.67,1.71,1.71,0,0,1,.09.3,1.16,1.16,0,0,1-.67,1.22h0a1.16,1.16,0,0,0,.67-1.22,1.71,1.71,0,0,0-.09-.3,1.13,1.13,0,0,0-1.22-.67,1.11,1.11,0,0,0-.3.08,1.17,1.17,0,0,0-.68,1.23,1.71,1.71,0,0,0,.09.3,1.18,1.18,0,0,0,1.23.67.86.86,0,0,0,.3-.09Zm19.66,35.61h0a1.71,1.71,0,0,1-.09-.3,1.16,1.16,0,0,1,.67-1.22,1.11,1.11,0,0,1,.31-.09,1.16,1.16,0,0,1,1.22.67,1.71,1.71,0,0,1,.09.3,1.18,1.18,0,0,1-.67,1.23,1.09,1.09,0,0,1-.31.08,1.14,1.14,0,0,1-1.22-.67h0a1.14,1.14,0,0,0,1.22.67,1.09,1.09,0,0,0,.31-.08,1.18,1.18,0,0,0,.67-1.23,1.71,1.71,0,0,0-.09-.3,1.16,1.16,0,0,0-1.22-.67,1.11,1.11,0,0,0-.31.09,1.16,1.16,0,0,0-.67,1.22,1.71,1.71,0,0,0,.09.3Zm27.09,14.36h0a101.34,101.34,0,0,0-1.55,13.13,2.14,2.14,0,0,1-1.22,1.82,2.35,2.35,0,0,1-.52.14,2.1,2.1,0,0,1-1.65-.45,102.76,102.76,0,0,0-10.82-7.6,2.17,2.17,0,0,1-1-1.54,2.19,2.19,0,0,1,1.28-2.33l6.24-2.79,6.25-2.79a2,2,0,0,1,.58-.17,2.2,2.2,0,0,1,2.47,1.83,2.11,2.11,0,0,1,0,.75h0a2.11,2.11,0,0,0,0-.75,2.2,2.2,0,0,0-2.47-1.83,2,2,0,0,0-.58.17l-6.25,2.79L238.11,418a2.19,2.19,0,0,0-1.28,2.33,2.17,2.17,0,0,0,1,1.54,102.76,102.76,0,0,1,10.82,7.6,2.1,2.1,0,0,0,1.65.45,2.35,2.35,0,0,0,.52-.14,2.14,2.14,0,0,0,1.22-1.82,101.34,101.34,0,0,1,1.55-13.13Zm-8.95-21.19h0a1,1,0,0,1-.3.08,1.13,1.13,0,0,1-1.22-.67,1.71,1.71,0,0,1-.09-.3,1.16,1.16,0,0,1,.67-1.22,1.11,1.11,0,0,1,.31-.09,1.16,1.16,0,0,1,1.22.67,1.71,1.71,0,0,1,.09.3,1.17,1.17,0,0,1-.68,1.23h0a1.17,1.17,0,0,0,.68-1.23,1.71,1.71,0,0,0-.09-.3,1.16,1.16,0,0,0-1.22-.67,1.11,1.11,0,0,0-.31.09,1.16,1.16,0,0,0-.67,1.22,1.71,1.71,0,0,0,.09.3,1.14,1.14,0,0,0,1.22.67,1,1,0,0,0,.3-.08Zm-4.85-10.88h0l-.3.09a1.18,1.18,0,0,1-1.23-.67,1.58,1.58,0,0,1-.09-.31,1.16,1.16,0,0,1,.68-1.22l.3-.09a1.16,1.16,0,0,1,1.22.67,1.11,1.11,0,0,1,.09.31,1.16,1.16,0,0,1-.67,1.22h0a1.16,1.16,0,0,0,.67-1.22,1.11,1.11,0,0,0-.09-.31,1.16,1.16,0,0,0-1.22-.67l-.3.09a1.16,1.16,0,0,0-.68,1.22,1.58,1.58,0,0,0,.09.31,1.18,1.18,0,0,0,1.23.67l.3-.09ZM235,371.84h0a.86.86,0,0,1-.3.09,1.14,1.14,0,0,1-1.22-.67.86.86,0,0,1-.09-.3,1.14,1.14,0,0,1,.67-1.22.86.86,0,0,1,.3-.09,1.14,1.14,0,0,1,1.22.67.86.86,0,0,1,.09.3,1.13,1.13,0,0,1-.67,1.22h0a1.13,1.13,0,0,0,.67-1.22.86.86,0,0,0-.09-.3,1.14,1.14,0,0,0-1.22-.67.86.86,0,0,0-.3.09,1.14,1.14,0,0,0-.67,1.22.86.86,0,0,0,.09.3,1.14,1.14,0,0,0,1.22.67.86.86,0,0,0,.3-.09ZM230.12,361h0a1.58,1.58,0,0,1-.31.09,1.16,1.16,0,0,1-1.22-.68,1.32,1.32,0,0,1-.09-.3,1.16,1.16,0,0,1,.67-1.22,1.58,1.58,0,0,1,.31-.09,1.17,1.17,0,0,1,1.22.67,1.58,1.58,0,0,1,.09.31,1.16,1.16,0,0,1-.67,1.22h0a1.16,1.16,0,0,0,.67-1.22,1.58,1.58,0,0,0-.09-.31,1.17,1.17,0,0,0-1.22-.67,1.58,1.58,0,0,0-.31.09,1.16,1.16,0,0,0-.67,1.22,1.32,1.32,0,0,0,.09.3,1.16,1.16,0,0,0,1.22.68,1.58,1.58,0,0,0,.31-.09Zm-4.86-10.88h0a.86.86,0,0,1-.3.09,1.18,1.18,0,0,1-1.23-.67,1.11,1.11,0,0,1-.08-.3,1.15,1.15,0,0,1,.67-1.23,1.11,1.11,0,0,1,.3-.08,1.13,1.13,0,0,1,1.22.67.86.86,0,0,1,.09.3,1.16,1.16,0,0,1-.67,1.22h0a1.16,1.16,0,0,0,.67-1.22.86.86,0,0,0-.09-.3,1.13,1.13,0,0,0-1.22-.67,1.11,1.11,0,0,0-.3.08,1.15,1.15,0,0,0-.67,1.23,1.11,1.11,0,0,0,.08.3,1.18,1.18,0,0,0,1.23.67.86.86,0,0,0,.3-.09Zm21.19,36.2h0a1.09,1.09,0,0,1-.31.08,1.14,1.14,0,0,1-1.22-.67,1.71,1.71,0,0,1-.09-.3,1.15,1.15,0,0,1,.68-1.22,1,1,0,0,1,.3-.09,1.16,1.16,0,0,1,1.22.67,1.71,1.71,0,0,1,.09.3,1.18,1.18,0,0,1-.67,1.23h0a1.18,1.18,0,0,0,.67-1.23,1.71,1.71,0,0,0-.09-.3,1.16,1.16,0,0,0-1.22-.67,1,1,0,0,0-.3.09,1.15,1.15,0,0,0-.68,1.22,1.71,1.71,0,0,0,.09.3,1.14,1.14,0,0,0,1.22.67,1.09,1.09,0,0,0,.31-.08Zm-4.86-10.88h0l-.3.09a1.16,1.16,0,0,1-1.22-.67.86.86,0,0,1-.09-.3,1.16,1.16,0,0,1,.67-1.23l.3-.09a1.15,1.15,0,0,1,1.22.68.8.8,0,0,1,.09.3,1.14,1.14,0,0,1-.67,1.22h0a1.14,1.14,0,0,0,.67-1.22.8.8,0,0,0-.09-.3,1.15,1.15,0,0,0-1.22-.68l-.3.09a1.16,1.16,0,0,0-.67,1.23.86.86,0,0,0,.09.3,1.16,1.16,0,0,0,1.22.67l.3-.09Zm-4.86-10.88h0a.8.8,0,0,1-.3.09,1.14,1.14,0,0,1-1.22-.67,1.71,1.71,0,0,1-.09-.3,1.16,1.16,0,0,1,.67-1.22.86.86,0,0,1,.3-.09,1.16,1.16,0,0,1,1.23.67,1.71,1.71,0,0,1,.09.3,1.15,1.15,0,0,1-.68,1.22h0a1.15,1.15,0,0,0,.68-1.22,1.71,1.71,0,0,0-.09-.3,1.16,1.16,0,0,0-1.23-.67.86.86,0,0,0-.3.09,1.16,1.16,0,0,0-.67,1.22,1.71,1.71,0,0,0,.09.3,1.14,1.14,0,0,0,1.22.67.8.8,0,0,0,.3-.09Zm-4.85-10.87h0l-.3.09a1.18,1.18,0,0,1-1.23-.67,1.58,1.58,0,0,1-.09-.31,1.16,1.16,0,0,1,.68-1.22l.3-.09a1.16,1.16,0,0,1,1.22.67,1.81,1.81,0,0,1,.09.31,1.16,1.16,0,0,1-.67,1.22h0a1.16,1.16,0,0,0,.67-1.22,1.81,1.81,0,0,0-.09-.31,1.16,1.16,0,0,0-1.22-.67l-.3.09a1.16,1.16,0,0,0-.68,1.22,1.58,1.58,0,0,0,.09.31,1.18,1.18,0,0,0,1.23.67l.3-.09Z"/><path class="cls-19" d="M447.25,485.35h0l-61.87-11.48,51.2-1.18-53.73-11.57,47.88-2L386.16,451l38.17-3.74-9.78-3.58a56.29,56.29,0,0,1-6.27,1.29,75.49,75.49,0,0,1-9.4.76,100.14,100.14,0,0,1-11-.37c-3.63-.32-7.15-.71-10.78-1.34a112.33,112.33,0,0,1-21-5.71c-1.46-.55-2.9-1.14-4.34-1.74L336.9,452.34c-.09.13-.13.25-.23.37C334,456,304.35,476,302.34,477.84a2.06,2.06,0,0,1-1.1.46c-3.08.45-10-2.44-13.43-2.15-5.42.46-9.7-1.16-9.86-2.26-.05-.37.36-.68,1.36-.83a5.67,5.67,0,0,1,.62-.06,35.76,35.76,0,0,0,5.2-.37,14.21,14.21,0,0,0,6.16-2.1c3.46-2.61,16.48-16.78,20-23.55s7.43-29.31,7.43-29.31l.26.11-.37-.26a183.47,183.47,0,0,1-30.19-28.15c-1.23,6.41-2.48,10.7-3.9,12.2a1.39,1.39,0,0,0-.45,1.15c.33,2.2,7.26,3.76,7.26,3.76l13.31,3.95L292,405.08c-.07,2.65-.84,11.29-.12,16.21,0,0-9.73,17.76-15.39,33a25.34,25.34,0,0,0-10.29-.69,19.74,19.74,0,0,0-3.95,1c-7.06,2.61-12.39,8.8-12,11.38a3.78,3.78,0,0,0,3.05,3s.5,3.37,3.64,3a.94.94,0,0,0,0,.12c.09.6.62,3.28,2.86,3.07a3.4,3.4,0,0,0,0,.45,2.19,2.19,0,0,0,2.57,2.14l.4-.09,4.18,2.83a3.63,3.63,0,0,0,0,1.17,2.5,2.5,0,0,0,2.59,2.21,4.85,4.85,0,0,0,0,1.21,2.92,2.92,0,0,0,2.47,2.66,5,5,0,0,0,.05.61,4.65,4.65,0,0,0,3.35,4,4.18,4.18,0,0,0,0,1.06c.19,1.29,1,3.42,4.32,4.53,0,0,4.16,2.18,11.45,1.1a35.14,35.14,0,0,0,7.72-2.13,41.91,41.91,0,0,0,5.56-.51,61.8,61.8,0,0,0,25.51-9.9c14.77-10.08,18-12.92,19.94-13.2l.19,0,20.88-17.17L339.31,475a7.07,7.07,0,0,0,.08,1c1,6.94,11.12,19.72,11.12,19.72l102.24.87-67.5-12.73,62,1.54h0l-62-1.54,67.5,12.73-102.24-.87S340.42,482.89,339.39,476a7.07,7.07,0,0,1-.08-1l31.81-18.81-20.88,17.17-.19,0c-1.92.28-5.17,3.12-19.94,13.2a61.8,61.8,0,0,1-25.51,9.9,41.91,41.91,0,0,1-5.56.51,35.14,35.14,0,0,1-7.72,2.13c-7.29,1.08-11.45-1.1-11.45-1.1-3.29-1.11-4.13-3.24-4.32-4.53a4.18,4.18,0,0,1,0-1.06,4.65,4.65,0,0,1-3.35-4,5,5,0,0,1-.05-.61,2.92,2.92,0,0,1-2.47-2.66,4.85,4.85,0,0,1,0-1.21,2.5,2.5,0,0,1-2.59-2.21,3.63,3.63,0,0,1,0-1.17l-4.18-2.83-.4.09a2.19,2.19,0,0,1-2.57-2.14,3.4,3.4,0,0,1,0-.45c-2.24.21-2.77-2.47-2.86-3.07a.94.94,0,0,1,0-.12c-3.14.39-3.64-3-3.64-3a3.78,3.78,0,0,1-3.05-3c-.39-2.58,4.94-8.77,12-11.38a19.74,19.74,0,0,1,3.95-1,25.34,25.34,0,0,1,10.29.69c5.66-15.24,15.39-33,15.39-33-.72-4.92.05-13.56.12-16.21l12.64,5.35-13.31-3.95s-6.93-1.56-7.26-3.76a1.39,1.39,0,0,1,.45-1.15c1.42-1.5,2.67-5.79,3.9-12.2a183.47,183.47,0,0,0,30.19,28.15l.37.26-.26-.11s-3.87,22.54-7.43,29.31-16.58,20.94-20,23.55a14.21,14.21,0,0,1-6.16,2.1,35.76,35.76,0,0,1-5.2.37,5.67,5.67,0,0,0-.62.06c-1,.15-1.41.46-1.36.83.16,1.1,4.44,2.72,9.86,2.26,3.43-.29,10.35,2.6,13.43,2.15a2.06,2.06,0,0,0,1.1-.46c2-1.86,31.69-21.86,34.33-25.13.1-.12.14-.24.23-.37l14.83-15.74c1.44.6,2.88,1.19,4.34,1.74a112.33,112.33,0,0,0,21,5.71c3.63.63,7.15,1,10.78,1.34a100.14,100.14,0,0,0,11,.37,75.49,75.49,0,0,0,9.4-.76,56.29,56.29,0,0,0,6.27-1.29l9.78,3.58L386.16,451l44.57,8.09-47.88,2,53.73,11.57-51.2,1.18,61.87,11.48Z"/><path class="cls-20" d="M409.83,415.29c-.59-2.17-1.11-4.63-1.55-7.19a84.41,84.41,0,0,0-.86-13.79,72.73,72.73,0,0,0-1.6-7.81,61.2,61.2,0,0,0-2.48-7.48,28.4,28.4,0,0,0-2.73-5.07c-3.15-2-14.29-8.76-18.7-9.44a6.15,6.15,0,0,0-1.86,0c-5.58.83-14.47,7.28-14.47,7.28s7.71-8.48,14.35-10.1l.43-.08c3.74-.56,10,2.79,15,5.95-13.73-13.92-37.48-23.37-37.48-23.37s-8.92,7.32-17.31,10.65c7.08-5.13,15.11-12.14,15.71-13.57s-.67-8.36-.25-9.15a2.65,2.65,0,0,0,.23-1.71c0-.07,0-.13,0-.16,0-.24-.65-.75-.73-.91v0c0-.21.77-1.17.87-1.65a.8.8,0,0,0,0-.22,7.27,7.27,0,0,0-.76-1.71s3.72-2,3.75-3.4c-3.08-3.36-4.87-11-4.87-11s2.32-2.42,1.59-7.35h0c.48-.07,6.51-1.07,7.69-7a11.5,11.5,0,0,0,.14-4,10.2,10.2,0,0,0-4.66-7.08,7.66,7.66,0,0,1,.18.89c.21,1.4.28,4-1.85,4.88l-.19.05c-3,.45-9.33-14.39-29-12.65-1.1.1-2.16.22-3.18.37-16.15,2.39-22.81,11.25-21.9,17.4a7.07,7.07,0,0,0,.48,1.72s-6.35,4.86-5.41,11.24a9.88,9.88,0,0,0,1.22,3.42c4,7.06,9.56,16.07,10.23,20.62a4.5,4.5,0,0,1,0,1.51,2.73,2.73,0,0,0-.07.94c.08.56.45.71.94.63a10,10,0,0,0,3.29-1.82,11.5,11.5,0,0,1,5.19,8.33,18,18,0,0,1-.42,6.84l-3.21,10.2.41-10c-.53.06-1.12.13-1.76.23-7.24,1.07-20.77,4.81-22.51,17.82-.2,1.5-.4,2.94-.59,4.36v0c.09.63-3.5,19.59-3.41,20.23h0c1.13,1.26,8.5,7.25,12.62,10.73l.12,2,4,6L347,435.49,371.27,447l44.37-1.66-4.75-23.78a10.83,10.83,0,0,0,1.18-.39h0a10.83,10.83,0,0,1-1.18.39l4.75,23.78L371.27,447,347,435.49l-42.58-23.62-4-6-.12-2c-4.12-3.48-11.49-9.47-12.62-10.73h0c-.09-.64,3.5-19.6,3.41-20.23v0c.19-1.42.39-2.86.59-4.36,1.74-13,15.27-16.75,22.51-17.82.64-.1,1.23-.17,1.76-.23l-.41,10,3.21-10.2a18,18,0,0,0,.42-6.84,11.5,11.5,0,0,0-5.19-8.33,10,10,0,0,1-3.29,1.82c-.49.08-.86-.07-.94-.63a2.73,2.73,0,0,1,.07-.94,4.5,4.5,0,0,0,0-1.51c-.67-4.55-6.21-13.56-10.23-20.62a9.88,9.88,0,0,1-1.22-3.42c-.94-6.38,5.41-11.24,5.41-11.24a7.07,7.07,0,0,1-.48-1.72c-.91-6.15,5.75-15,21.9-17.4,1-.15,2.08-.27,3.18-.37,19.71-1.74,26,13.1,29,12.65l.19-.05c2.13-.84,2.06-3.48,1.85-4.88a7.66,7.66,0,0,0-.18-.89,10.2,10.2,0,0,1,4.66,7.08,11.5,11.5,0,0,1-.14,4c-1.18,5.95-7.21,6.95-7.69,7h0c.73,4.93-1.59,7.35-1.59,7.35s1.79,7.66,4.87,11c0,1.41-3.75,3.4-3.75,3.4a6.87,6.87,0,0,1,.76,1.71.8.8,0,0,1,0,.22c-.1.48-.9,1.44-.87,1.65v0c.08.16.7.67.73.91,0,0,0,.09,0,.16a2.65,2.65,0,0,1-.23,1.71c-.42.79.86,7.72.25,9.15s-8.63,8.44-15.71,13.57c8.39-3.33,17.31-10.65,17.31-10.65s23.75,9.45,37.48,23.37c-4.95-3.16-11.24-6.51-15-5.95l-.43.08c-6.64,1.62-14.35,10.1-14.35,10.1s8.89-6.45,14.47-7.28a6.15,6.15,0,0,1,1.86,0c4.41.68,15.55,7.48,18.7,9.44a28.4,28.4,0,0,1,2.73,5.07,61.2,61.2,0,0,1,2.48,7.48,72.73,72.73,0,0,1,1.6,7.81,84.41,84.41,0,0,1,.86,13.79c.44,2.56,1,5,1.55,7.19Zm-43.66-32.21h0a22,22,0,0,1,1.88,6.28c1.52,10.26-3.53,20.37-3.22,22.49a.47.47,0,0,0,.21.37c1.73.86,18.25,7.54,18.25,7.54a71.12,71.12,0,0,1-10.61-1.88l-11.46-5.94c.68-2.19,3.43-6.79,4.54-12.15,1.32-6.28.41-16.71.41-16.71h0s.91,10.43-.41,16.71c-1.11,5.36-3.86,10-4.54,12.15l11.46,5.94a71.12,71.12,0,0,0,10.61,1.88s-16.52-6.68-18.25-7.54a.47.47,0,0,1-.21-.37c-.31-2.12,4.74-12.23,3.22-22.49a22,22,0,0,0-1.88-6.28Zm-66.35.06h0l.27.27-.22,0-.05-.31h0l.05.31.22,0-.27-.27Zm33.72-41.56h0c4.58,1.24,17,.44,17,.44l-.88.13a129.42,129.42,0,0,1-14.05,1.44c-5.24.06-12.21-9.23-12.21-9.23s5.52,6,10.11,7.22h0c-4.59-1.24-10.11-7.22-10.11-7.22s7,9.29,12.21,9.23a129.42,129.42,0,0,0,14.05-1.44l.88-.13s-12.45.8-17-.44Zm-35.86,25.74h0c.87-9.49,12.95-11.47,12.95-11.47-7.58,3.88-8.53,6.89-10.76,15.85-.7,2.8.74,9-.05,11.44-.51-3.13-1-6.14-1.37-8.69a50.92,50.92,0,0,1-.77-7.13h0a50.92,50.92,0,0,0,.77,7.13c.38,2.55.86,5.56,1.37,8.69.79-2.46-.65-8.64.05-11.44,2.23-9,3.18-12,10.76-15.85,0,0-12.08,2-12.95,11.47Zm86.18,56.35Z"/></g><rect class="cls-21" x="137.56" y="453.68" width="480.99" height="28.96" transform="translate(-64.5 60.42) rotate(-8.42)"/><text class="cls-22" transform="translate(171.09 503.15) rotate(-8.42) scale(0.75 1)">NAME SURNAME</text><text class="cls-23" transform="translate(343.17 477.67) rotate(-8.42) scale(0.75 1)">Nº 000 000</text><text class="cls-23" transform="translate(462.07 460.06) rotate(-8.42) scale(0.75 1)">01/01</text><text class="cls-24" transform="translate(427.31 457.28) rotate(-8.42) scale(0.75 1)">MEMBER<tspan x="0" y="8.59">SINCE</tspan></text><text class="cls-24" transform="translate(509.95 445.05) rotate(-8.42) scale(0.75 1)">VALID<tspan x="0" y="8.59">TRHU</tspan></text><text class="cls-23" transform="translate(536.01 449.12) rotate(-8.42) scale(0.75 1)">01/01</text></g><path class="cls-25" d="M221.34,374.62a12,12,0,0,0-3.07-7.59,12,12,0,0,0,.7,15.42,12,12,0,0,0,2.37-7.83"/><path class="cls-25" d="M232.59,374.1a13.58,13.58,0,0,1,2.81-9,12,12,0,0,0-16.06.73,13.88,13.88,0,0,1,.81,17.76,12,12,0,0,0,16.06-.73,13.65,13.65,0,0,1-3.62-8.74"/><path class="cls-25" d="M234.21,374a12,12,0,0,1,2.37-7.83,12,12,0,0,1,.7,15.42,12.05,12.05,0,0,1-3.07-7.59"/><g class="cls-26"><rect class="cls-27" x="193.21" y="380.62" width="33.04" height="33.69" transform="translate(-239.66 400.83) rotate(-62.61)"/></g><g class="cls-28"><rect class="cls-29" x="169.34" y="369.27" width="55.01" height="54.98" transform="translate(-245.99 389) rotate(-62.61)"/></g><g class="cls-30"><rect class="cls-31" x="199.03" y="383.09" width="39.53" height="41.03" transform="translate(-240.22 412.2) rotate(-62.61)"/></g><path class="cls-32" d="M234.76,394.27c3.31-5.52,5.75-5.24,8.12-5.59L379,368.53a4.33,4.33,0,0,1,4.92,3.64l2.1,14.18a4.33,4.33,0,0,1-3.65,4.92L231.51,413.6A4.32,4.32,0,0,1,226.6,410a4.84,4.84,0,0,1,.5-3.52"/><path class="cls-33" d="M577.63,343.31c-5.79-4.17-8.64-3.11-11.6-2.67L395.49,365.89c-3,.44-5.08,2.71-4.73,5.08l2.1,14.18c.35,2.36,3,3.92,6,3.48l189-28c3-.44,5.07-2.71,4.73-5.08a4.13,4.13,0,0,0-1.76-3.18"/><g class="cls-34"><g class="cls-35"><g class="cls-36"><g class="cls-37"><g class="cls-38"><g class="cls-39"><g class="cls-40"><polygon class="cls-41" points="282.63 382.33 345.37 297.49 428.76 362.22 366.02 447.06 282.63 382.33"/></g></g></g></g><g class="cls-42"><g class="cls-43"><g class="cls-44"><g class="cls-45"><polygon class="cls-46" points="290.29 384.86 353.02 300.02 436.41 364.75 373.67 449.59 290.29 384.86"/></g></g></g></g><g class="cls-47"><g class="cls-48"><g class="cls-49"><g class="cls-50"><polygon class="cls-51" points="310.55 380.43 373.28 295.6 456.67 360.32 393.93 445.16 310.55 380.43"/></g></g></g></g></g></g></g><text class="cls-52" transform="translate(251.53 406.08) rotate(-8.42) scale(1.03 1)"><tspan class="cls-53">P</tspan><tspan class="cls-54" x="18.16" y="0">AS</tspan><tspan x="59.97" y="0">S</tspan></text><path class="cls-55" d="M254.46,393.47l2.54-.37c1.5-.22,2.92-.11,3.19,1.72s-1.06,2.36-2.55,2.58l-2.54.38ZM253,405.86l3.27-.48-.77-5.15,3.44-.51c3.72-.55,4.79-3,4.45-5.36s-2.1-4.4-5.82-3.85l-6.69,1Z"/><path class="cls-55" d="M276.83,390.43l3.24,5.19-4.93.73,1.67-5.92Zm-3.74,12.45,1.09-3.41,7.51-1.11,1.92,3,3.16-.47L278,387.5l-3.29.48-4.61,15.34Z"/><path class="cls-55" d="M292.91,395.08c.52,3.54,3.75,4.66,7.07,4.17,4.06-.6,5.89-2.89,5.5-5.52-.49-3.26-3.89-3.43-5-3.53-3.85-.31-4.59-.45-4.75-1.52s1-1.81,2-2,2.55-.32,3.19,1.3l3.23,0c-.49-3.32-3.54-4.2-6.63-3.75-2.69.4-5.35,2.22-4.91,5.17.79,5.37,9.34,2.09,9.79,5.15.22,1.47-1.48,2.05-2.62,2.22s-3,.17-3.61-1.67Z"/><path class="cls-55" d="M312.64,392.16c.52,3.54,3.75,4.66,7.08,4.17,4-.6,5.88-2.89,5.49-5.52-.48-3.26-3.89-3.43-5-3.53-3.85-.32-4.59-.45-4.75-1.52s1-1.81,2-2,2.54-.32,3.18,1.29l3.23,0c-.49-3.32-3.53-4.21-6.63-3.75-2.68.4-5.35,2.21-4.91,5.17.8,5.37,9.34,2.09,9.79,5.15.22,1.47-1.48,2.05-2.62,2.22s-3,.17-3.61-1.67Z"/><path class="cls-56" d="M343.3,388.4h0a4.08,4.08,0,0,1-1.34,1.87,4.55,4.55,0,0,1-2.12.9l-.3,0h-.05a4.52,4.52,0,0,1-1.87-.09,4.77,4.77,0,0,1-1.69-.79,4.84,4.84,0,0,1-1.27-1.39,4.77,4.77,0,0,1-.68-1.82l-.08-.53v-.05a4.61,4.61,0,0,1,.09-1.89,5,5,0,0,1,.79-1.71,4.9,4.9,0,0,1,1.36-1.28,4.52,4.52,0,0,1,1.8-.68l.3-.05h0a4.17,4.17,0,0,1,2,.16,4.13,4.13,0,0,1,1.72,1.18l-.31.26a3.76,3.76,0,0,0-1.55-1,3.8,3.8,0,0,0-1.85-.15h0l-.3,0a4.34,4.34,0,0,0-1.65.62,4.68,4.68,0,0,0-1.25,1.18,4.83,4.83,0,0,0-.72,1.56,4.23,4.23,0,0,0-.09,1.74v0l.08.53a4.49,4.49,0,0,0,.62,1.66,4.62,4.62,0,0,0,1.18,1.27,4.51,4.51,0,0,0,1.55.73,4.09,4.09,0,0,0,1.71.09h0l.3-.05a4.14,4.14,0,0,0,1.91-.81,3.63,3.63,0,0,0,1.22-1.69l.39.13h0l-.39-.13a3.63,3.63,0,0,1-1.22,1.69,4.14,4.14,0,0,1-1.91.81l-.3.05h0a4.09,4.09,0,0,1-1.71-.09,4.51,4.51,0,0,1-1.55-.73,4.62,4.62,0,0,1-1.18-1.27,4.32,4.32,0,0,1-.62-1.66l-.08-.53v0a4.23,4.23,0,0,1,.09-1.74,4.83,4.83,0,0,1,.72-1.56,4.68,4.68,0,0,1,1.25-1.18,4.34,4.34,0,0,1,1.65-.62l.3,0h0a3.8,3.8,0,0,1,1.85.15,3.76,3.76,0,0,1,1.55,1l.31-.26a4.13,4.13,0,0,0-1.72-1.18,4.17,4.17,0,0,0-2-.16h0l-.3.05a4.52,4.52,0,0,0-1.8.68,4.9,4.9,0,0,0-1.36,1.28,5,5,0,0,0-.79,1.71,4.61,4.61,0,0,0-.09,1.89v.05l.08.53a4.77,4.77,0,0,0,.68,1.82,4.84,4.84,0,0,0,1.27,1.39,4.77,4.77,0,0,0,1.69.79,4.52,4.52,0,0,0,1.87.09h.05l.3,0a4.55,4.55,0,0,0,2.12-.9,4.08,4.08,0,0,0,1.34-1.87Z"/><path class="cls-57" d="M349.5,379.31h0l5.6,9.31-.43.07-2-3.29-5.07.8-.88,3.73-.44.07,2.48-10.57.72-.12h0l-.72.12L346.3,390l.44-.07.88-3.73,5.07-.8,2,3.29.43-.07-5.6-9.31Zm-1.79,6.46h0l4.74-.75-3.27-5.45-1.47,6.2h0l1.47-6.2,3.27,5.45-4.74.75Z"/><path class="cls-58" d="M365.55,387h0l-.46.07-2.95-3.85-3.88.61.66,4.21-.4.07L357,378.14l4-.63h0a3,3,0,0,1,1.11,0,3.08,3.08,0,0,1,1,.45,3,3,0,0,1,.79.79,2.84,2.84,0,0,1,.41,1.07l0,.13v0a2.42,2.42,0,0,1,0,.89,2.74,2.74,0,0,1-.31.84,2.84,2.84,0,0,1-.54.71,3.19,3.19,0,0,1-.74.52l-.17.07,3,3.92h0l-3-3.92.17-.07a3.19,3.19,0,0,0,.74-.52,2.84,2.84,0,0,0,.54-.71,2.74,2.74,0,0,0,.31-.84,2.42,2.42,0,0,0,0-.89v0l0-.13a2.84,2.84,0,0,0-.41-1.07,3,3,0,0,0-.79-.79,3.08,3.08,0,0,0-1-.45,3,3,0,0,0-1.11,0h0l-4,.63,1.56,9.94.4-.07-.66-4.21,3.88-.61,2.95,3.85.46-.07Zm-3.78-4.12h0a2.67,2.67,0,0,0,.91-.32,2.62,2.62,0,0,0,.73-.63,2.55,2.55,0,0,0,.44-.85,2.26,2.26,0,0,0,.06-1v0l0-.13a2.11,2.11,0,0,0-.36-.93,2.51,2.51,0,0,0-.67-.67A2.54,2.54,0,0,0,362,378a2.8,2.8,0,0,0-1,0h0l-3.57.56.78,4.93,3.57-.57h0l-3.57.57-.78-4.93,3.57-.56h0a2.8,2.8,0,0,1,1,0,2.54,2.54,0,0,1,.88.37,2.38,2.38,0,0,1,.67.67,2.11,2.11,0,0,1,.36.93l0,.13v0a2.26,2.26,0,0,1-.06,1,2.55,2.55,0,0,1-.44.85,2.62,2.62,0,0,1-.73.63,2.67,2.67,0,0,1-.91.32Z"/><path class="cls-59" d="M376.58,380h0l0,.29v.06a5.08,5.08,0,0,1-.74,3.53,4.32,4.32,0,0,1-3,1.95l-3.5.55-1.56-9.94,3.5-.55h.05a4.27,4.27,0,0,1,1.82.11,4.46,4.46,0,0,1,1.59.82,4.86,4.86,0,0,1,1.18,1.4,5.1,5.1,0,0,1,.63,1.79h0a5.1,5.1,0,0,0-.63-1.79,4.86,4.86,0,0,0-1.18-1.4,4.46,4.46,0,0,0-1.59-.82,4.27,4.27,0,0,0-1.82-.11h-.05l-3.5.55,1.56,9.94,3.5-.55a4.32,4.32,0,0,0,3-1.95,5.08,5.08,0,0,0,.74-3.53v-.06l0-.29Zm-5.21-3.7h0l-3.1.49,1.44,9.11,3.1-.49a3.93,3.93,0,0,0,1.6-.61,4.27,4.27,0,0,0,1.15-1.17,4.6,4.6,0,0,0,.63-1.55,4.73,4.73,0,0,0,0-1.68v-.05l0-.28a4.72,4.72,0,0,0-.57-1.63,4.43,4.43,0,0,0-1.07-1.28,4.07,4.07,0,0,0-1.46-.76,3.73,3.73,0,0,0-1.67-.1h0a3.73,3.73,0,0,1,1.67.1,4.07,4.07,0,0,1,1.46.76,4.43,4.43,0,0,1,1.07,1.28,4.72,4.72,0,0,1,.57,1.63l0,.28v.05a4.73,4.73,0,0,1,0,1.68,4.6,4.6,0,0,1-.63,1.55,4.27,4.27,0,0,1-1.15,1.17,3.93,3.93,0,0,1-1.6.61l-3.1.49-1.44-9.11,3.1-.49Z"/><text class="cls-60" transform="translate(245.01 384.66) rotate(-8.42) scale(1.31 1)"><tspan class="cls-61">P</tspan><tspan x="18.99" y="0">ADEL</tspan></text><text class="cls-22" transform="translate(408.81 380.97) rotate(-8.42) scale(1.3 1)">SI<tspan class="cls-62" x="13.52" y="0">L</tspan><tspan class="cls-63" x="20.71" y="0">VER</tspan></text><text class="cls-64" transform="translate(477.22 370.82) rotate(-8.42) scale(1.3 1)">M<tspan class="cls-65" x="15.14" y="0">E</tspan><tspan x="26.55" y="0">M</tspan><tspan class="cls-66" x="41.69" y="0">BE</tspan><tspan class="cls-63" x="65.32" y="0">R</tspan></text></g></g></svg>